<svg xmlns="http://www.w3.org/2000/svg" xmlns:xlink="http://www.w3.org/1999/xlink" width="1080" zoomAndPan="magnify" viewBox="0 0 810 809.999993" height="1080" preserveAspectRatio="xMidYMid meet" version="1.0"><defs><g/></defs><g fill="#ffffff" fill-opacity="1"><g transform="translate(182.413584, 626.774634)"><g><path d="M -6.34375 -6.890625 C -5.90625 -6.410156 -5.695312 -5.875 -5.71875 -5.28125 C -5.75 -4.695312 -6 -4.1875 -6.46875 -3.75 L -40.109375 27.25 C -40.585938 27.6875 -41.117188 27.890625 -41.703125 27.859375 C -42.296875 27.835938 -42.8125 27.585938 -43.25 27.109375 L -46.390625 23.703125 C -46.816406 23.234375 -47.019531 22.703125 -47 22.109375 C -46.976562 21.523438 -46.726562 21.015625 -46.25 20.578125 L -12.609375 -10.421875 C -12.140625 -10.859375 -11.609375 -11.0625 -11.015625 -11.03125 C -10.421875 -11.007812 -9.910156 -10.765625 -9.484375 -10.296875 Z M -49.625 34.03125 C -49.1875 34.5 -48.976562 35.03125 -49 35.625 C -49.019531 36.21875 -49.265625 36.734375 -49.734375 37.171875 L -53.5625 40.6875 C -54.039062 41.125 -54.585938 41.335938 -55.203125 41.328125 C -55.816406 41.328125 -56.34375 41.09375 -56.78125 40.625 L -60.890625 36.140625 C -61.328125 35.671875 -61.535156 35.117188 -61.515625 34.484375 C -61.492188 33.859375 -61.242188 33.328125 -60.765625 32.890625 L -56.9375 29.375 C -56.46875 28.9375 -55.925781 28.738281 -55.3125 28.78125 C -54.695312 28.820312 -54.171875 29.078125 -53.734375 29.546875 Z M -49.625 34.03125 "/></g></g></g><g fill="#ffffff" fill-opacity="1"><g transform="translate(168.177755, 612.89506)"><g><path d="M -6.265625 -8.5625 C -5.847656 -7.988281 -5.691406 -7.421875 -5.796875 -6.859375 C -5.910156 -6.304688 -6.226562 -5.835938 -6.75 -5.453125 L -57.640625 31.859375 C -58.160156 32.234375 -58.703125 32.390625 -59.265625 32.328125 C -59.835938 32.265625 -60.332031 31.945312 -60.75 31.375 L -63.78125 27.25 C -64.15625 26.738281 -64.296875 26.1875 -64.203125 25.59375 C -64.117188 25 -63.816406 24.515625 -63.296875 24.140625 L -17.375 -9.53125 L -36.3125 -35.359375 C -36.726562 -35.929688 -36.894531 -36.507812 -36.8125 -37.09375 C -36.726562 -37.675781 -36.398438 -38.175781 -35.828125 -38.59375 L -32.71875 -40.875 C -32.195312 -41.257812 -31.640625 -41.40625 -31.046875 -41.3125 C -30.460938 -41.21875 -29.960938 -40.882812 -29.546875 -40.3125 Z M -6.265625 -8.5625 "/></g></g></g><g fill="#ffffff" fill-opacity="1"><g transform="translate(138.727435, 571.585837)"><g><path d="M -4.65625 -8.125 C -4.332031 -7.5625 -4.242188 -6.992188 -4.390625 -6.421875 C -4.546875 -5.847656 -4.90625 -5.398438 -5.46875 -5.078125 L -45.15625 17.65625 C -45.707031 17.976562 -46.269531 18.0625 -46.84375 17.90625 C -47.425781 17.75 -47.878906 17.390625 -48.203125 16.828125 L -50.515625 12.8125 C -50.828125 12.257812 -50.898438 11.691406 -50.734375 11.109375 C -50.578125 10.535156 -50.222656 10.085938 -49.671875 9.765625 L -9.984375 -12.96875 C -9.421875 -13.289062 -8.851562 -13.367188 -8.28125 -13.203125 C -7.71875 -13.046875 -7.28125 -12.691406 -6.96875 -12.140625 Z M -55.9375 22.15625 C -55.613281 22.71875 -55.53125 23.28125 -55.6875 23.84375 C -55.84375 24.414062 -56.203125 24.863281 -56.765625 25.1875 L -61.265625 27.765625 C -61.828125 28.085938 -62.40625 28.179688 -63 28.046875 C -63.601562 27.910156 -64.066406 27.5625 -64.390625 27 L -67.40625 21.71875 C -67.726562 21.164062 -67.804688 20.582031 -67.640625 19.96875 C -67.472656 19.351562 -67.109375 18.882812 -66.546875 18.5625 L -62.046875 15.984375 C -61.484375 15.660156 -60.90625 15.585938 -60.3125 15.765625 C -59.726562 15.953125 -59.273438 16.320312 -58.953125 16.875 Z M -55.9375 22.15625 "/></g></g></g><g fill="#ffffff" fill-opacity="1"><g transform="translate(128.121709, 553.967241)"><g><path d="M -11.203125 -24.28125 C -9.691406 -21 -9.09375 -18.046875 -9.40625 -15.421875 C -9.726562 -12.804688 -10.820312 -10.492188 -12.6875 -8.484375 C -14.5625 -6.484375 -17.078125 -4.757812 -20.234375 -3.3125 L -43.359375 7.375 L -40.203125 14.203125 C -39.929688 14.796875 -39.898438 15.363281 -40.109375 15.90625 C -40.316406 16.457031 -40.710938 16.867188 -41.296875 17.140625 L -44.28125 18.515625 C -44.863281 18.785156 -45.429688 18.820312 -45.984375 18.625 C -46.535156 18.425781 -46.945312 18.03125 -47.21875 17.4375 L -50.375 10.609375 L -65 17.359375 C -65.59375 17.628906 -66.164062 17.660156 -66.71875 17.453125 C -67.269531 17.242188 -67.675781 16.847656 -67.9375 16.265625 L -69.84375 12.140625 C -70.113281 11.554688 -70.148438 10.988281 -69.953125 10.4375 C -69.753906 9.882812 -69.359375 9.472656 -68.765625 9.203125 L -54.140625 2.453125 L -59.15625 -8.40625 C -59.445312 -9.050781 -59.484375 -9.632812 -59.265625 -10.15625 C -59.046875 -10.6875 -58.644531 -11.085938 -58.0625 -11.359375 L -55.078125 -12.734375 C -54.492188 -13.003906 -53.929688 -13.050781 -53.390625 -12.875 C -52.847656 -12.695312 -52.429688 -12.285156 -52.140625 -11.640625 L -47.125 -0.78125 L -24.609375 -11.171875 C -21.867188 -12.441406 -19.921875 -13.90625 -18.765625 -15.5625 C -17.609375 -17.226562 -17.585938 -19.257812 -18.703125 -21.65625 L -21.15625 -27 C -21.425781 -27.59375 -21.460938 -28.160156 -21.265625 -28.703125 C -21.066406 -29.253906 -20.671875 -29.664062 -20.078125 -29.9375 L -16.9375 -31.390625 C -16.351562 -31.660156 -15.78125 -31.695312 -15.21875 -31.5 C -14.664062 -31.300781 -14.253906 -30.90625 -13.984375 -30.3125 Z M -11.203125 -24.28125 "/></g></g></g><g fill="#ffffff" fill-opacity="1"><g transform="translate(113.585984, 522.921134)"><g><path d="M -8.5 -25.34375 C -7.351562 -21.925781 -7.078125 -18.929688 -7.671875 -16.359375 C -8.273438 -13.785156 -9.613281 -11.609375 -11.6875 -9.828125 C -13.769531 -8.046875 -16.460938 -6.597656 -19.765625 -5.484375 L -43.90625 2.609375 L -41.5 9.75 C -41.300781 10.363281 -41.332031 10.9375 -41.59375 11.46875 C -41.863281 12 -42.300781 12.363281 -42.90625 12.5625 L -46.015625 13.609375 C -46.617188 13.816406 -47.1875 13.785156 -47.71875 13.515625 C -48.257812 13.253906 -48.628906 12.816406 -48.828125 12.203125 L -51.234375 5.0625 L -66.515625 10.1875 C -67.128906 10.394531 -67.695312 10.363281 -68.21875 10.09375 C -68.738281 9.832031 -69.101562 9.398438 -69.3125 8.796875 L -70.75 4.5 C -70.957031 3.882812 -70.929688 3.3125 -70.671875 2.78125 C -70.410156 2.257812 -69.972656 1.894531 -69.359375 1.6875 L -54.078125 -3.4375 L -57.890625 -14.78125 C -58.109375 -15.457031 -58.078125 -16.039062 -57.796875 -16.53125 C -57.523438 -17.03125 -57.085938 -17.382812 -56.484375 -17.59375 L -53.375 -18.640625 C -52.769531 -18.835938 -52.203125 -18.820312 -51.671875 -18.59375 C -51.148438 -18.363281 -50.78125 -17.910156 -50.5625 -17.234375 L -46.75 -5.890625 L -23.234375 -13.78125 C -20.367188 -14.738281 -18.273438 -15.984375 -16.953125 -17.515625 C -15.640625 -19.046875 -15.40625 -21.0625 -16.25 -23.5625 L -18.109375 -29.140625 C -18.316406 -29.753906 -18.289062 -30.328125 -18.03125 -30.859375 C -17.769531 -31.390625 -17.332031 -31.753906 -16.71875 -31.953125 L -13.4375 -33.0625 C -12.820312 -33.269531 -12.25 -33.238281 -11.71875 -32.96875 C -11.1875 -32.707031 -10.816406 -32.269531 -10.609375 -31.65625 Z M -8.5 -25.34375 "/></g></g></g><g fill="#ffffff" fill-opacity="1"><g transform="translate(102.133815, 491.332345)"><g><path d="M -4.21875 -26.90625 C -2.945312 -20.332031 -3.945312 -14.734375 -7.21875 -10.109375 C -10.488281 -5.484375 -15.554688 -2.300781 -22.421875 -0.5625 C -23.234375 -0.34375 -24.285156 -0.109375 -25.578125 0.140625 C -26.867188 0.390625 -27.9375 0.5625 -28.78125 0.65625 C -33.300781 1.257812 -37.429688 0.976562 -41.171875 -0.1875 C -44.910156 -1.363281 -48 -3.367188 -50.4375 -6.203125 C -52.882812 -9.035156 -54.523438 -12.597656 -55.359375 -16.890625 C -56.285156 -21.703125 -56.050781 -25.925781 -54.65625 -29.5625 C -53.269531 -33.207031 -50.878906 -36.238281 -47.484375 -38.65625 C -44.085938 -41.082031 -39.894531 -42.78125 -34.90625 -43.75 L -33.296875 -44.0625 C -32.597656 -44.195312 -32.019531 -44.097656 -31.5625 -43.765625 C -31.101562 -43.429688 -30.8125 -42.945312 -30.6875 -42.3125 L -24.34375 -9.546875 C -24.28125 -9.554688 -24.15625 -9.578125 -23.96875 -9.609375 C -23.78125 -9.648438 -23.625 -9.6875 -23.5 -9.71875 C -20.945312 -10.332031 -18.644531 -11.363281 -16.59375 -12.8125 C -14.539062 -14.257812 -13.003906 -16.078125 -11.984375 -18.265625 C -10.972656 -20.460938 -10.71875 -22.851562 -11.21875 -25.4375 C -11.65625 -27.71875 -12.363281 -29.546875 -13.34375 -30.921875 C -14.332031 -32.304688 -15.347656 -33.390625 -16.390625 -34.171875 C -17.429688 -34.953125 -18.234375 -35.453125 -18.796875 -35.671875 C -19.660156 -36.097656 -20.203125 -36.453125 -20.421875 -36.734375 C -20.640625 -37.023438 -20.816406 -37.519531 -20.953125 -38.21875 L -21.84375 -42.84375 C -21.957031 -43.414062 -21.878906 -43.941406 -21.609375 -44.421875 C -21.347656 -44.898438 -20.898438 -45.171875 -20.265625 -45.234375 C -19.304688 -45.347656 -18.050781 -45.0625 -16.5 -44.375 C -14.957031 -43.695312 -13.351562 -42.613281 -11.6875 -41.125 C -10.03125 -39.644531 -8.523438 -37.707031 -7.171875 -35.3125 C -5.828125 -32.925781 -4.84375 -30.125 -4.21875 -26.90625 Z M -30.875 -8.28125 L -35.90625 -34.234375 L -36.203125 -34.1875 C -39.046875 -33.632812 -41.46875 -32.617188 -43.46875 -31.140625 C -45.476562 -29.671875 -46.9375 -27.832031 -47.84375 -25.625 C -48.757812 -23.414062 -48.957031 -20.953125 -48.4375 -18.234375 C -47.90625 -15.523438 -46.804688 -13.332031 -45.140625 -11.65625 C -43.484375 -9.976562 -41.453125 -8.847656 -39.046875 -8.265625 C -36.640625 -7.691406 -34.015625 -7.679688 -31.171875 -8.234375 Z M -30.875 -8.28125 "/></g></g></g><g fill="#ffffff" fill-opacity="1"><g transform="translate(92.938752, 442.30006)"><g><path d="M -0.5625 -9.34375 C -0.519531 -8.695312 -0.695312 -8.148438 -1.09375 -7.703125 C -1.488281 -7.265625 -2.007812 -7.023438 -2.65625 -6.984375 L -48.203125 -4.234375 C -48.847656 -4.191406 -49.40625 -4.363281 -49.875 -4.75 C -50.351562 -5.144531 -50.613281 -5.664062 -50.65625 -6.3125 L -50.921875 -10.734375 C -50.960938 -11.378906 -50.769531 -11.9375 -50.34375 -12.40625 C -49.914062 -12.882812 -49.378906 -13.144531 -48.734375 -13.1875 L -44.515625 -13.4375 C -46.785156 -14.601562 -48.53125 -16.273438 -49.75 -18.453125 C -50.976562 -20.628906 -51.691406 -23.328125 -51.890625 -26.546875 L -52.109375 -30.296875 C -52.148438 -30.941406 -51.972656 -31.484375 -51.578125 -31.921875 C -51.179688 -32.367188 -50.660156 -32.613281 -50.015625 -32.65625 L -46.078125 -32.890625 C -45.429688 -32.929688 -44.898438 -32.753906 -44.484375 -32.359375 C -44.078125 -31.960938 -43.851562 -31.441406 -43.8125 -30.796875 L -43.46875 -25.015625 C -43.257812 -21.546875 -42.082031 -18.878906 -39.9375 -17.015625 C -37.789062 -15.148438 -34.984375 -14.320312 -31.515625 -14.53125 L -3.203125 -16.234375 C -2.554688 -16.273438 -2.007812 -16.082031 -1.5625 -15.65625 C -1.125 -15.226562 -0.890625 -14.695312 -0.859375 -14.0625 Z M -0.5625 -9.34375 "/></g></g></g><g fill="#ffffff" fill-opacity="1"><g transform="translate(91.056965, 408.458032)"><g><path d="M 0.25 -9.453125 C 0.226562 -8.804688 0.00390625 -8.28125 -0.421875 -7.875 C -0.847656 -7.46875 -1.382812 -7.273438 -2.03125 -7.296875 L -66.09375 -8.96875 C -66.726562 -8.988281 -67.25 -9.210938 -67.65625 -9.640625 C -68.0625 -10.066406 -68.253906 -10.601562 -68.234375 -11.25 L -68.125 -15.796875 C -68.101562 -16.492188 -67.878906 -17.03125 -67.453125 -17.40625 C -67.023438 -17.789062 -66.492188 -17.972656 -65.859375 -17.953125 L -1.796875 -16.28125 C -1.148438 -16.257812 -0.625 -16.046875 -0.21875 -15.640625 C 0.1875 -15.242188 0.378906 -14.695312 0.359375 -14 Z M 0.25 -9.453125 "/></g></g></g><g fill="#ffffff" fill-opacity="1"><g transform="translate(90.532692, 388.488944)"><g><path d="M 4.703125 -26.8125 C 3.773438 -20.1875 1.019531 -15.210938 -3.5625 -11.890625 C -8.144531 -8.566406 -13.972656 -7.203125 -21.046875 -7.796875 C -21.867188 -7.847656 -22.929688 -7.960938 -24.234375 -8.140625 C -25.546875 -8.328125 -26.617188 -8.507812 -27.453125 -8.6875 C -31.929688 -9.570312 -35.742188 -11.171875 -38.890625 -13.484375 C -42.046875 -15.804688 -44.320312 -18.703125 -45.71875 -22.171875 C -47.125 -25.640625 -47.523438 -29.546875 -46.921875 -33.890625 C -46.253906 -38.734375 -44.671875 -42.65625 -42.171875 -45.65625 C -39.679688 -48.65625 -36.4375 -50.753906 -32.4375 -51.953125 C -28.445312 -53.148438 -23.929688 -53.394531 -18.890625 -52.6875 L -17.265625 -52.46875 C -16.566406 -52.375 -16.054688 -52.09375 -15.734375 -51.625 C -15.410156 -51.15625 -15.289062 -50.597656 -15.375 -49.953125 L -19.96875 -16.890625 C -19.90625 -16.890625 -19.773438 -16.875 -19.578125 -16.84375 C -19.390625 -16.820312 -19.234375 -16.800781 -19.109375 -16.78125 C -16.472656 -16.539062 -13.953125 -16.773438 -11.546875 -17.484375 C -9.148438 -18.191406 -7.113281 -19.414062 -5.4375 -21.15625 C -3.757812 -22.90625 -2.738281 -25.085938 -2.375 -27.703125 C -2.0625 -29.992188 -2.148438 -31.953125 -2.640625 -33.578125 C -3.128906 -35.210938 -3.734375 -36.566406 -4.453125 -37.640625 C -5.179688 -38.722656 -5.78125 -39.457031 -6.25 -39.84375 C -6.9375 -40.519531 -7.335938 -41.023438 -7.453125 -41.359375 C -7.566406 -41.703125 -7.578125 -42.226562 -7.484375 -42.9375 L -6.828125 -47.609375 C -6.753906 -48.179688 -6.515625 -48.648438 -6.109375 -49.015625 C -5.703125 -49.390625 -5.179688 -49.5 -4.546875 -49.34375 C -3.597656 -49.15625 -2.503906 -48.484375 -1.265625 -47.328125 C -0.0351562 -46.179688 1.125 -44.640625 2.21875 -42.703125 C 3.320312 -40.765625 4.125 -38.441406 4.625 -35.734375 C 5.125 -33.035156 5.148438 -30.0625 4.703125 -26.8125 Z M -26.5625 -17.8125 L -22.921875 -44 L -23.203125 -44.046875 C -26.078125 -44.441406 -28.703125 -44.265625 -31.078125 -43.515625 C -33.453125 -42.773438 -35.425781 -41.507812 -37 -39.71875 C -38.582031 -37.925781 -39.5625 -35.660156 -39.9375 -32.921875 C -40.320312 -30.179688 -40 -27.75 -38.96875 -25.625 C -37.9375 -23.5 -36.375 -21.769531 -34.28125 -20.4375 C -32.195312 -19.113281 -29.71875 -18.253906 -26.84375 -17.859375 Z M -26.5625 -17.8125 "/></g></g></g><g fill="#ffffff" fill-opacity="1"><g transform="translate(97.151074, 339.575435)"><g><path d="M 7.859375 -23.234375 C 6.835938 -19.773438 5.53125 -16.9375 3.9375 -14.71875 C 2.351562 -12.507812 0.71875 -10.816406 -0.96875 -9.640625 C -2.65625 -8.460938 -4.226562 -7.671875 -5.6875 -7.265625 C -7.15625 -6.859375 -8.269531 -6.726562 -9.03125 -6.875 C -9.71875 -7.019531 -10.171875 -7.394531 -10.390625 -8 C -10.617188 -8.601562 -10.664062 -9.148438 -10.53125 -9.640625 L -9.296875 -13.796875 C -9.203125 -14.109375 -9.078125 -14.359375 -8.921875 -14.546875 C -8.773438 -14.734375 -8.429688 -14.957031 -7.890625 -15.21875 C -6.785156 -15.75 -5.65625 -16.378906 -4.5 -17.109375 C -3.351562 -17.835938 -2.285156 -18.847656 -1.296875 -20.140625 C -0.316406 -21.429688 0.492188 -23.160156 1.140625 -25.328125 C 2.066406 -28.472656 2.226562 -31.238281 1.625 -33.625 C 1.019531 -36.007812 -0.457031 -37.550781 -2.8125 -38.25 C -4.34375 -38.695312 -5.691406 -38.644531 -6.859375 -38.09375 C -8.035156 -37.539062 -9.3125 -36.304688 -10.6875 -34.390625 C -12.0625 -32.484375 -13.691406 -29.789062 -15.578125 -26.3125 C -17.535156 -22.875 -19.46875 -20.257812 -21.375 -18.46875 C -23.28125 -16.6875 -25.242188 -15.59375 -27.265625 -15.1875 C -29.296875 -14.78125 -31.421875 -14.90625 -33.640625 -15.5625 C -35.921875 -16.238281 -37.925781 -17.566406 -39.65625 -19.546875 C -41.382812 -21.535156 -42.539062 -24.039062 -43.125 -27.0625 C -43.707031 -30.082031 -43.414062 -33.566406 -42.25 -37.515625 C -41.300781 -40.722656 -40.09375 -43.347656 -38.625 -45.390625 C -37.15625 -47.441406 -35.597656 -49.03125 -33.953125 -50.15625 C -32.316406 -51.28125 -30.800781 -52.039062 -29.40625 -52.4375 C -28.007812 -52.832031 -26.90625 -52.941406 -26.09375 -52.765625 C -25.445312 -52.648438 -24.988281 -52.316406 -24.71875 -51.765625 C -24.445312 -51.210938 -24.394531 -50.65625 -24.5625 -50.09375 L -25.703125 -46.21875 C -25.828125 -45.78125 -26.023438 -45.453125 -26.296875 -45.234375 C -26.566406 -45.015625 -26.863281 -44.816406 -27.1875 -44.640625 C -28.175781 -44.253906 -29.191406 -43.765625 -30.234375 -43.171875 C -31.273438 -42.578125 -32.253906 -41.691406 -33.171875 -40.515625 C -34.085938 -39.335938 -34.863281 -37.671875 -35.5 -35.515625 C -36.40625 -32.429688 -36.4375 -29.925781 -35.59375 -28 C -34.757812 -26.070312 -33.351562 -24.816406 -31.375 -24.234375 C -30.207031 -23.890625 -29.0625 -23.921875 -27.9375 -24.328125 C -26.8125 -24.742188 -25.597656 -25.796875 -24.296875 -27.484375 C -22.992188 -29.179688 -21.347656 -31.785156 -19.359375 -35.296875 C -17.367188 -39.128906 -15.347656 -42.019531 -13.296875 -43.96875 C -11.242188 -45.914062 -9.175781 -47.113281 -7.09375 -47.5625 C -5.007812 -48.019531 -2.796875 -47.90625 -0.453125 -47.21875 C 2.128906 -46.457031 4.285156 -45.015625 6.015625 -42.890625 C 7.742188 -40.773438 8.800781 -38.046875 9.1875 -34.703125 C 9.570312 -31.367188 9.128906 -27.546875 7.859375 -23.234375 Z M 7.859375 -23.234375 "/></g></g></g><g fill="#ffffff" fill-opacity="1"><g transform="translate(109.508311, 296.561027)"><g><path d="M 11.0625 -21.890625 C 9.5625 -18.609375 7.867188 -15.984375 5.984375 -14.015625 C 4.097656 -12.054688 2.234375 -10.613281 0.390625 -9.6875 C -1.441406 -8.757812 -3.109375 -8.195312 -4.609375 -8 C -6.109375 -7.8125 -7.226562 -7.84375 -7.96875 -8.09375 C -8.632812 -8.332031 -9.035156 -8.765625 -9.171875 -9.390625 C -9.316406 -10.015625 -9.28125 -10.5625 -9.0625 -11.03125 L -7.265625 -14.984375 C -7.128906 -15.273438 -6.96875 -15.503906 -6.78125 -15.671875 C -6.601562 -15.835938 -6.226562 -16.003906 -5.65625 -16.171875 C -4.488281 -16.554688 -3.28125 -17.023438 -2.03125 -17.578125 C -0.789062 -18.140625 0.40625 -18.988281 1.5625 -20.125 C 2.71875 -21.269531 3.765625 -22.863281 4.703125 -24.90625 C 6.066406 -27.894531 6.617188 -30.613281 6.359375 -33.0625 C 6.097656 -35.507812 4.851562 -37.242188 2.625 -38.265625 C 1.164062 -38.929688 -0.175781 -39.070312 -1.40625 -38.6875 C -2.644531 -38.300781 -4.078125 -37.257812 -5.703125 -35.5625 C -7.335938 -33.863281 -9.332031 -31.429688 -11.6875 -28.265625 C -14.113281 -25.128906 -16.394531 -22.8125 -18.53125 -21.3125 C -20.664062 -19.8125 -22.769531 -19.003906 -24.84375 -18.890625 C -26.914062 -18.773438 -29.003906 -19.203125 -31.109375 -20.171875 C -33.265625 -21.160156 -35.054688 -22.757812 -36.484375 -24.96875 C -37.921875 -27.175781 -38.710938 -29.816406 -38.859375 -32.890625 C -39.015625 -35.972656 -38.238281 -39.382812 -36.53125 -43.125 C -35.132812 -46.164062 -33.5625 -48.59375 -31.8125 -50.40625 C -30.0625 -52.21875 -28.296875 -53.566406 -26.515625 -54.453125 C -24.734375 -55.335938 -23.125 -55.875 -21.6875 -56.0625 C -20.25 -56.257812 -19.144531 -56.21875 -18.375 -55.9375 C -17.75 -55.71875 -17.335938 -55.316406 -17.140625 -54.734375 C -16.953125 -54.160156 -16.976562 -53.609375 -17.21875 -53.078125 L -18.90625 -49.390625 C -19.09375 -48.972656 -19.332031 -48.671875 -19.625 -48.484375 C -19.925781 -48.304688 -20.25 -48.15625 -20.59375 -48.03125 C -21.625 -47.789062 -22.695312 -47.453125 -23.8125 -47.015625 C -24.925781 -46.578125 -26.019531 -45.835938 -27.09375 -44.796875 C -28.175781 -43.765625 -29.1875 -42.226562 -30.125 -40.1875 C -31.457031 -37.257812 -31.84375 -34.785156 -31.28125 -32.765625 C -30.726562 -30.742188 -29.515625 -29.300781 -27.640625 -28.4375 C -26.523438 -27.9375 -25.378906 -27.804688 -24.203125 -28.046875 C -23.035156 -28.285156 -21.6875 -29.148438 -20.15625 -30.640625 C -18.632812 -32.140625 -16.644531 -34.488281 -14.1875 -37.6875 C -11.664062 -41.195312 -9.25 -43.769531 -6.9375 -45.40625 C -4.625 -47.039062 -2.410156 -47.9375 -0.296875 -48.09375 C 1.816406 -48.25 3.988281 -47.816406 6.21875 -46.796875 C 8.664062 -45.671875 10.59375 -43.9375 12 -41.59375 C 13.414062 -39.257812 14.082031 -36.414062 14 -33.0625 C 13.914062 -29.707031 12.9375 -25.984375 11.0625 -21.890625 Z M 11.0625 -21.890625 "/></g></g></g><g fill="#ffffff" fill-opacity="1"><g transform="translate(129.017721, 255.073163)"><g/></g></g><g fill="#ffffff" fill-opacity="1"><g transform="translate(139.762967, 236.628748)"><g><path d="M 6.046875 -8.71875 C 5.640625 -8.132812 5.15625 -7.800781 4.59375 -7.71875 C 4.03125 -7.644531 3.484375 -7.789062 2.953125 -8.15625 L -48.921875 -44.09375 C -49.453125 -44.457031 -49.773438 -44.914062 -49.890625 -45.46875 C -50.015625 -46.03125 -49.875 -46.601562 -49.46875 -47.1875 L -46.5625 -51.40625 C -46.15625 -51.988281 -45.671875 -52.316406 -45.109375 -52.390625 C -44.554688 -52.460938 -44.015625 -52.316406 -43.484375 -51.953125 L 8.390625 -16.015625 C 8.921875 -15.648438 9.25 -15.191406 9.375 -14.640625 C 9.5 -14.085938 9.359375 -13.519531 8.953125 -12.9375 Z M 6.046875 -8.71875 "/></g></g></g><g fill="#ffffff" fill-opacity="1"><g transform="translate(151.598906, 217.409614)"><g><path d="M 6.234375 -6.984375 C 5.796875 -6.503906 5.28125 -6.242188 4.6875 -6.203125 C 4.101562 -6.171875 3.570312 -6.375 3.09375 -6.8125 L -31.046875 -37.25 C -31.523438 -37.675781 -31.78125 -38.1875 -31.8125 -38.78125 C -31.851562 -39.375 -31.65625 -39.910156 -31.21875 -40.390625 L -28.203125 -43.78125 C -27.773438 -44.257812 -27.265625 -44.515625 -26.671875 -44.546875 C -26.085938 -44.578125 -25.554688 -44.378906 -25.078125 -43.953125 L -21.90625 -41.125 C -22.425781 -43.832031 -22.351562 -46.59375 -21.6875 -49.40625 C -21.03125 -52.21875 -19.375 -55.113281 -16.71875 -58.09375 C -13.9375 -61.207031 -10.882812 -63.25 -7.5625 -64.21875 C -4.25 -65.1875 -0.875 -65.15625 2.5625 -64.125 C 6 -63.09375 9.320312 -61.144531 12.53125 -58.28125 L 32.84375 -40.171875 C 33.320312 -39.734375 33.578125 -39.21875 33.609375 -38.625 C 33.640625 -38.03125 33.4375 -37.492188 33 -37.015625 L 29.796875 -33.421875 C 29.367188 -32.941406 28.859375 -32.679688 28.265625 -32.640625 C 27.679688 -32.609375 27.148438 -32.8125 26.671875 -33.25 L 6.71875 -51.03125 C 3.363281 -54.03125 0.0078125 -55.5625 -3.34375 -55.625 C -6.707031 -55.6875 -9.800781 -54.128906 -12.625 -50.953125 C -15.28125 -47.972656 -16.457031 -44.738281 -16.15625 -41.25 C -15.863281 -37.757812 -14.039062 -34.515625 -10.6875 -31.515625 L 9.265625 -13.734375 C 9.742188 -13.296875 10 -12.78125 10.03125 -12.1875 C 10.070312 -11.601562 9.875 -11.070312 9.4375 -10.59375 Z M 6.234375 -6.984375 "/></g></g></g><g fill="#ffffff" fill-opacity="1"><g transform="translate(186.756248, 177.397273)"><g><path d="M 20.484375 -15.171875 C 17.722656 -12.960938 14.945312 -11.539062 12.15625 -10.90625 C 9.363281 -10.28125 6.648438 -10.296875 4.015625 -10.953125 C 1.390625 -11.609375 -1.097656 -12.757812 -3.453125 -14.40625 C -5.816406 -16.0625 -8.007812 -18.054688 -10.03125 -20.390625 C -10.726562 -21.148438 -11.359375 -21.878906 -11.921875 -22.578125 C -12.484375 -23.285156 -13.0625 -24.066406 -13.65625 -24.921875 C -15.445312 -27.347656 -16.890625 -29.890625 -17.984375 -32.546875 C -19.085938 -35.210938 -19.679688 -37.910156 -19.765625 -40.640625 C -19.859375 -43.378906 -19.289062 -46.039062 -18.0625 -48.625 C -16.84375 -51.21875 -14.851562 -53.617188 -12.09375 -55.828125 C -9.125 -58.203125 -6.238281 -59.648438 -3.4375 -60.171875 C -0.644531 -60.691406 2.003906 -60.671875 4.515625 -60.109375 L -9.375 -77.4375 C -9.78125 -77.945312 -9.945312 -78.492188 -9.875 -79.078125 C -9.8125 -79.660156 -9.53125 -80.15625 -9.03125 -80.5625 L -5.421875 -83.453125 C -4.921875 -83.859375 -4.375 -84.03125 -3.78125 -83.96875 C -3.1875 -83.90625 -2.6875 -83.617188 -2.28125 -83.109375 L 37.78125 -33.109375 C 38.1875 -32.597656 38.351562 -32.050781 38.28125 -31.46875 C 38.207031 -30.882812 37.921875 -30.390625 37.421875 -29.984375 L 34.046875 -27.28125 C 33.492188 -26.832031 32.9375 -26.648438 32.375 -26.734375 C 31.8125 -26.816406 31.328125 -27.113281 30.921875 -27.625 L 28.390625 -30.78125 C 28.410156 -28.164062 27.851562 -25.515625 26.71875 -22.828125 C 25.582031 -20.140625 23.503906 -17.585938 20.484375 -15.171875 Z M 17.171875 -22.53125 C 19.691406 -24.550781 21.238281 -26.742188 21.8125 -29.109375 C 22.394531 -31.472656 22.347656 -33.84375 21.671875 -36.21875 C 21.003906 -38.601562 19.945312 -40.75 18.5 -42.65625 C 17.914062 -43.488281 17.171875 -44.46875 16.265625 -45.59375 C 15.359375 -46.726562 14.554688 -47.675781 13.859375 -48.4375 C 12.410156 -50.15625 10.609375 -51.554688 8.453125 -52.640625 C 6.304688 -53.722656 4.023438 -54.203125 1.609375 -54.078125 C -0.804688 -53.960938 -3.222656 -52.9375 -5.640625 -51 C -8.191406 -48.945312 -9.765625 -46.753906 -10.359375 -44.421875 C -10.960938 -42.085938 -10.859375 -39.738281 -10.046875 -37.375 C -9.234375 -35.019531 -8.03125 -32.753906 -6.4375 -30.578125 C -5.320312 -29.078125 -4.15625 -27.625 -2.9375 -26.21875 C -1.15625 -24.175781 0.796875 -22.5 2.921875 -21.1875 C 5.046875 -19.882812 7.3125 -19.269531 9.71875 -19.34375 C 12.132812 -19.414062 14.617188 -20.476562 17.171875 -22.53125 Z M 17.171875 -22.53125 "/></g></g></g><g fill="#ffffff" fill-opacity="1"><g transform="translate(227.388944, 144.415695)"><g><path d="M 24.609375 -12.75 C 20.335938 -10.34375 16.316406 -9.144531 12.546875 -9.15625 C 8.773438 -9.175781 5.316406 -10.207031 2.171875 -12.25 C -0.960938 -14.289062 -3.648438 -17.109375 -5.890625 -20.703125 C -6.492188 -21.628906 -7.210938 -22.835938 -8.046875 -24.328125 C -8.890625 -25.816406 -9.53125 -27.015625 -9.96875 -27.921875 C -11.914062 -31.785156 -12.921875 -35.578125 -12.984375 -39.296875 C -13.054688 -43.023438 -12.117188 -46.503906 -10.171875 -49.734375 C -8.234375 -52.972656 -5.160156 -55.78125 -0.953125 -58.15625 C 3.242188 -60.519531 7.226562 -61.691406 11 -61.671875 C 14.78125 -61.660156 18.242188 -60.65625 21.390625 -58.65625 C 24.546875 -56.664062 27.265625 -53.84375 29.546875 -50.1875 C 30.097656 -49.332031 30.789062 -48.160156 31.625 -46.671875 C 32.46875 -45.179688 33.132812 -43.945312 33.625 -42.96875 C 35.53125 -39.164062 36.539062 -35.394531 36.65625 -31.65625 C 36.78125 -27.914062 35.867188 -24.425781 33.921875 -21.1875 C 31.972656 -17.957031 28.867188 -15.144531 24.609375 -12.75 Z M 20.96875 -19.234375 C 24.4375 -21.179688 26.582031 -23.847656 27.40625 -27.234375 C 28.226562 -30.617188 27.53125 -34.488281 25.3125 -38.84375 C 24.894531 -39.71875 24.320312 -40.796875 23.59375 -42.078125 C 22.863281 -43.367188 22.238281 -44.414062 21.71875 -45.21875 C 19.144531 -49.394531 16.195312 -52.003906 12.875 -53.046875 C 9.550781 -54.085938 6.15625 -53.632812 2.6875 -51.6875 C -0.789062 -49.726562 -2.957031 -47.046875 -3.8125 -43.640625 C -4.664062 -40.242188 -3.953125 -36.378906 -1.671875 -32.046875 C -1.253906 -31.179688 -0.679688 -30.101562 0.046875 -28.8125 C 0.773438 -27.53125 1.398438 -26.484375 1.921875 -25.671875 C 4.429688 -21.472656 7.363281 -18.859375 10.71875 -17.828125 C 14.070312 -16.804688 17.488281 -17.273438 20.96875 -19.234375 Z M 20.96875 -19.234375 "/></g></g></g><g fill="#ffffff" fill-opacity="1"><g transform="translate(270.931049, 119.267131)"><g><path d="M 8.796875 -3.203125 C 8.191406 -2.972656 7.625 -2.984375 7.09375 -3.234375 C 6.5625 -3.484375 6.179688 -3.910156 5.953125 -4.515625 L -9.65625 -47.5 C -9.882812 -48.113281 -9.875 -48.6875 -9.625 -49.21875 C -9.375 -49.757812 -8.945312 -50.144531 -8.34375 -50.375 L -4.078125 -51.921875 C -3.472656 -52.140625 -2.90625 -52.117188 -2.375 -51.859375 C -1.84375 -51.609375 -1.460938 -51.175781 -1.234375 -50.5625 L 0.203125 -46.59375 C 1.023438 -49.21875 2.394531 -51.613281 4.3125 -53.78125 C 6.238281 -55.945312 9.078125 -57.710938 12.828125 -59.078125 C 16.753906 -60.503906 20.40625 -60.851562 23.78125 -60.125 C 27.15625 -59.40625 30.109375 -57.773438 32.640625 -55.234375 C 35.171875 -52.703125 37.171875 -49.414062 38.640625 -45.375 L 47.9375 -19.78125 C 48.164062 -19.175781 48.148438 -18.601562 47.890625 -18.0625 C 47.640625 -17.53125 47.210938 -17.15625 46.609375 -16.9375 L 42.09375 -15.296875 C 41.476562 -15.078125 40.90625 -15.09375 40.375 -15.34375 C 39.84375 -15.59375 39.460938 -16.019531 39.234375 -16.625 L 30.109375 -41.765625 C 28.566406 -45.992188 26.332031 -48.925781 23.40625 -50.5625 C 20.488281 -52.195312 17.035156 -52.289062 13.046875 -50.84375 C 9.296875 -49.476562 6.71875 -47.191406 5.3125 -43.984375 C 3.914062 -40.773438 3.988281 -37.054688 5.53125 -32.828125 L 14.65625 -7.6875 C 14.882812 -7.082031 14.875 -6.507812 14.625 -5.96875 C 14.375 -5.4375 13.941406 -5.0625 13.328125 -4.84375 Z M 8.796875 -3.203125 "/></g></g></g><g fill="#ffffff" fill-opacity="1"><g transform="translate(321.035892, 100.811512)"><g><path d="M 26.921875 -4.09375 C 20.335938 -2.851562 14.738281 -3.875 10.125 -7.15625 C 5.519531 -10.445312 2.375 -15.535156 0.6875 -22.421875 C 0.46875 -23.222656 0.238281 -24.269531 0 -25.5625 C -0.25 -26.863281 -0.421875 -27.9375 -0.515625 -28.78125 C -1.109375 -33.3125 -0.804688 -37.4375 0.390625 -41.15625 C 1.585938 -44.882812 3.609375 -47.96875 6.453125 -50.40625 C 9.296875 -52.84375 12.867188 -54.46875 17.171875 -55.28125 C 21.984375 -56.1875 26.207031 -55.929688 29.84375 -54.515625 C 33.476562 -53.109375 36.5 -50.703125 38.90625 -47.296875 C 41.3125 -43.890625 42.984375 -39.6875 43.921875 -34.6875 L 44.234375 -33.078125 C 44.359375 -32.378906 44.25 -31.800781 43.90625 -31.34375 C 43.570312 -30.882812 43.085938 -30.597656 42.453125 -30.484375 L 9.65625 -24.296875 C 9.664062 -24.242188 9.6875 -24.117188 9.71875 -23.921875 C 9.757812 -23.734375 9.789062 -23.578125 9.8125 -23.453125 C 10.425781 -20.890625 11.453125 -18.578125 12.890625 -16.515625 C 14.328125 -14.460938 16.140625 -12.921875 18.328125 -11.890625 C 20.515625 -10.867188 22.90625 -10.601562 25.5 -11.09375 C 27.78125 -11.519531 29.613281 -12.222656 31 -13.203125 C 32.382812 -14.191406 33.472656 -15.203125 34.265625 -16.234375 C 35.054688 -17.265625 35.554688 -18.0625 35.765625 -18.625 C 36.191406 -19.488281 36.546875 -20.03125 36.828125 -20.25 C 37.117188 -20.46875 37.613281 -20.640625 38.3125 -20.765625 L 42.953125 -21.640625 C 43.523438 -21.753906 44.046875 -21.671875 44.515625 -21.390625 C 44.992188 -21.117188 45.257812 -20.664062 45.3125 -20.03125 C 45.4375 -19.070312 45.15625 -17.820312 44.46875 -16.28125 C 43.78125 -14.75 42.691406 -13.15625 41.203125 -11.5 C 39.710938 -9.84375 37.765625 -8.34375 35.359375 -7 C 32.953125 -5.664062 30.140625 -4.695312 26.921875 -4.09375 Z M 8.421875 -30.84375 L 34.40625 -35.75 L 34.359375 -36.046875 C 33.816406 -38.890625 32.816406 -41.316406 31.359375 -43.328125 C 29.898438 -45.335938 28.066406 -46.804688 25.859375 -47.734375 C 23.648438 -48.660156 21.1875 -48.867188 18.46875 -48.359375 C 15.757812 -47.835938 13.5625 -46.75 11.875 -45.09375 C 10.1875 -43.4375 9.046875 -41.40625 8.453125 -39 C 7.859375 -36.601562 7.832031 -33.984375 8.375 -31.140625 Z M 8.421875 -30.84375 "/></g></g></g><g fill="#ffffff" fill-opacity="1"><g transform="translate(369.506269, 91.497121)"><g><path d="M 24.53125 0.046875 C 20.925781 0.179688 17.820312 -0.148438 15.21875 -0.953125 C 12.613281 -1.753906 10.484375 -2.769531 8.828125 -4 C 7.179688 -5.226562 5.929688 -6.46875 5.078125 -7.71875 C 4.222656 -8.976562 3.75 -9.992188 3.65625 -10.765625 C 3.5625 -11.453125 3.765625 -12 4.265625 -12.40625 C 4.765625 -12.8125 5.269531 -13.023438 5.78125 -13.046875 L 10.125 -13.203125 C 10.4375 -13.222656 10.707031 -13.1875 10.9375 -13.09375 C 11.164062 -13.007812 11.488281 -12.753906 11.90625 -12.328125 C 12.769531 -11.460938 13.726562 -10.597656 14.78125 -9.734375 C 15.84375 -8.867188 17.140625 -8.175781 18.671875 -7.65625 C 20.210938 -7.132812 22.109375 -6.914062 24.359375 -7 C 27.640625 -7.125 30.3125 -7.851562 32.375 -9.1875 C 34.445312 -10.519531 35.441406 -12.40625 35.359375 -14.84375 C 35.296875 -16.445312 34.8125 -17.710938 33.90625 -18.640625 C 33.007812 -19.578125 31.4375 -20.390625 29.1875 -21.078125 C 26.945312 -21.773438 23.878906 -22.46875 19.984375 -23.15625 C 16.085938 -23.90625 12.992188 -24.898438 10.703125 -26.140625 C 8.410156 -27.378906 6.742188 -28.894531 5.703125 -30.6875 C 4.671875 -32.476562 4.113281 -34.53125 4.03125 -36.84375 C 3.9375 -39.21875 4.554688 -41.539062 5.890625 -43.8125 C 7.222656 -46.09375 9.226562 -47.988281 11.90625 -49.5 C 14.582031 -51.019531 17.976562 -51.859375 22.09375 -52.015625 C 25.4375 -52.140625 28.3125 -51.828125 30.71875 -51.078125 C 33.125 -50.335938 35.117188 -49.367188 36.703125 -48.171875 C 38.296875 -46.972656 39.503906 -45.773438 40.328125 -44.578125 C 41.148438 -43.390625 41.609375 -42.378906 41.703125 -41.546875 C 41.785156 -40.898438 41.609375 -40.359375 41.171875 -39.921875 C 40.742188 -39.492188 40.238281 -39.269531 39.65625 -39.25 L 35.609375 -39.09375 C 35.148438 -39.070312 34.773438 -39.148438 34.484375 -39.328125 C 34.191406 -39.515625 33.910156 -39.734375 33.640625 -39.984375 C 32.960938 -40.796875 32.175781 -41.601562 31.28125 -42.40625 C 30.394531 -43.207031 29.25 -43.851562 27.84375 -44.34375 C 26.4375 -44.84375 24.609375 -45.050781 22.359375 -44.96875 C 19.140625 -44.84375 16.75 -44.070312 15.1875 -42.65625 C 13.632812 -41.25 12.894531 -39.515625 12.96875 -37.453125 C 13.019531 -36.234375 13.414062 -35.160156 14.15625 -34.234375 C 14.90625 -33.304688 16.289062 -32.492188 18.3125 -31.796875 C 20.332031 -31.097656 23.320312 -30.367188 27.28125 -29.609375 C 31.539062 -28.929688 34.921875 -27.929688 37.421875 -26.609375 C 39.929688 -25.285156 41.734375 -23.707031 42.828125 -21.875 C 43.921875 -20.050781 44.515625 -17.914062 44.609375 -15.46875 C 44.710938 -12.78125 44.035156 -10.28125 42.578125 -7.96875 C 41.117188 -5.65625 38.867188 -3.78125 35.828125 -2.34375 C 32.796875 -0.914062 29.03125 -0.117188 24.53125 0.046875 Z M 24.53125 0.046875 "/></g></g></g><g fill="#ffffff" fill-opacity="1"><g transform="translate(415.349481, 90.277432)"><g><path d="M 9.34375 0.625 C 8.695312 0.582031 8.175781 0.34375 7.78125 -0.09375 C 7.394531 -0.539062 7.226562 -1.085938 7.28125 -1.734375 L 10.34375 -47.359375 C 10.382812 -48.003906 10.625 -48.523438 11.0625 -48.921875 C 11.507812 -49.316406 12.054688 -49.492188 12.703125 -49.453125 L 17.328125 -49.140625 C 17.960938 -49.097656 18.476562 -48.847656 18.875 -48.390625 C 19.269531 -47.941406 19.445312 -47.394531 19.40625 -46.75 L 16.34375 -1.125 C 16.289062 -0.476562 16.039062 0.0351562 15.59375 0.421875 C 15.144531 0.804688 14.601562 0.976562 13.96875 0.9375 Z M 12.578125 -58.828125 C 11.929688 -58.867188 11.410156 -59.113281 11.015625 -59.5625 C 10.628906 -60.007812 10.457031 -60.554688 10.5 -61.203125 L 10.84375 -66.390625 C 10.894531 -67.035156 11.140625 -67.566406 11.578125 -67.984375 C 12.023438 -68.398438 12.570312 -68.585938 13.21875 -68.546875 L 19.28125 -68.140625 C 19.925781 -68.097656 20.457031 -67.835938 20.875 -67.359375 C 21.300781 -66.878906 21.488281 -66.316406 21.4375 -65.671875 L 21.09375 -60.484375 C 21.050781 -59.835938 20.789062 -59.320312 20.3125 -58.9375 C 19.84375 -58.550781 19.285156 -58.378906 18.640625 -58.421875 Z M 12.578125 -58.828125 "/></g></g></g><g fill="#ffffff" fill-opacity="1"><g transform="translate(435.268866, 90.597647)"><g><path d="M 20.640625 4.6875 C 17.472656 4.113281 14.703125 2.960938 12.328125 1.234375 C 9.960938 -0.492188 8.179688 -2.578125 6.984375 -5.015625 C 5.785156 -7.453125 5.429688 -10.035156 5.921875 -12.765625 C 6.703125 -17.140625 9.097656 -20.300781 13.109375 -22.25 C 17.128906 -24.207031 22.0625 -25.085938 27.90625 -24.890625 L 42.40625 -24.34375 L 42.890625 -27.09375 C 43.441406 -30.144531 43.003906 -32.679688 41.578125 -34.703125 C 40.148438 -36.722656 37.472656 -38.082031 33.546875 -38.78125 C 30.753906 -39.28125 28.363281 -39.117188 26.375 -38.296875 C 24.394531 -37.472656 22.898438 -36.238281 21.890625 -34.59375 C 21.347656 -33.71875 20.597656 -33.363281 19.640625 -33.53125 L 15.390625 -34.296875 C 14.691406 -34.421875 14.203125 -34.71875 13.921875 -35.1875 C 13.648438 -35.664062 13.5625 -36.1875 13.65625 -36.75 C 13.832031 -37.707031 14.410156 -38.816406 15.390625 -40.078125 C 16.367188 -41.335938 17.734375 -42.492188 19.484375 -43.546875 C 21.242188 -44.609375 23.390625 -45.382812 25.921875 -45.875 C 28.460938 -46.363281 31.445312 -46.300781 34.875 -45.6875 C 38.664062 -45.007812 41.773438 -43.945312 44.203125 -42.5 C 46.628906 -41.050781 48.4375 -39.375 49.625 -37.46875 C 50.8125 -35.5625 51.550781 -33.5 51.84375 -31.28125 C 52.132812 -29.070312 52.085938 -26.890625 51.703125 -24.734375 L 46.171875 6.03125 C 46.054688 6.664062 45.753906 7.148438 45.265625 7.484375 C 44.785156 7.828125 44.226562 7.941406 43.59375 7.828125 L 39.234375 7.046875 C 38.535156 6.921875 38.03125 6.617188 37.71875 6.140625 C 37.414062 5.660156 37.320312 5.101562 37.4375 4.46875 L 38.171875 0.375 C 37.128906 1.375 35.816406 2.300781 34.234375 3.15625 C 32.648438 4.007812 30.742188 4.613281 28.515625 4.96875 C 26.296875 5.320312 23.671875 5.226562 20.640625 4.6875 Z M 23.90625 -2.078125 C 26.5 -1.609375 28.96875 -1.734375 31.3125 -2.453125 C 33.664062 -3.179688 35.671875 -4.609375 37.328125 -6.734375 C 38.984375 -8.859375 40.128906 -11.691406 40.765625 -15.234375 L 41.234375 -17.890625 L 29.953125 -18.25 C 25.328125 -18.4375 21.742188 -17.984375 19.203125 -16.890625 C 16.660156 -15.804688 15.179688 -14.128906 14.765625 -11.859375 C 14.453125 -10.078125 14.710938 -8.507812 15.546875 -7.15625 C 16.390625 -5.800781 17.5625 -4.691406 19.0625 -3.828125 C 20.570312 -2.972656 22.1875 -2.390625 23.90625 -2.078125 Z M 23.90625 -2.078125 "/></g></g></g><g fill="#ffffff" fill-opacity="1"><g transform="translate(484.082097, 99.993587)"><g/></g></g><g fill="#ffffff" fill-opacity="1"><g transform="translate(503.899524, 105.095562)"><g><path d="M 17.671875 -19.640625 C 17.078125 -19.890625 16.664062 -20.285156 16.4375 -20.828125 C 16.207031 -21.378906 16.21875 -21.953125 16.46875 -22.546875 L 17.859375 -25.9375 C 18.097656 -26.53125 18.488281 -26.941406 19.03125 -27.171875 C 19.582031 -27.398438 20.15625 -27.390625 20.75 -27.140625 L 47.53125 -16.140625 C 48.1875 -15.867188 48.613281 -15.46875 48.8125 -14.9375 C 49.007812 -14.40625 48.988281 -13.84375 48.75 -13.25 L 47.359375 -9.859375 C 47.109375 -9.265625 46.722656 -8.84375 46.203125 -8.59375 C 45.691406 -8.351562 45.109375 -8.367188 44.453125 -8.640625 Z M 17.671875 -19.640625 "/></g></g></g><g fill="#ffffff" fill-opacity="1"><g transform="translate(543.930351, 122.001954)"><g/></g></g><g fill="#ffffff" fill-opacity="1"><g transform="translate(562.015129, 129.756267)"><g><path d="M 15.765625 6.671875 C 15.296875 6.335938 15.015625 5.898438 14.921875 5.359375 C 14.835938 4.816406 14.988281 4.332031 15.375 3.90625 L 23.59375 -4.5625 L 15.84375 -10.140625 C 15.3125 -10.515625 15 -10.96875 14.90625 -11.5 C 14.820312 -12.039062 14.96875 -12.578125 15.34375 -13.109375 L 17.265625 -15.765625 C 17.628906 -16.285156 18.082031 -16.59375 18.625 -16.6875 C 19.164062 -16.78125 19.703125 -16.640625 20.234375 -16.265625 L 28.921875 -10.015625 L 40.875 -22.34375 L 32.171875 -28.59375 C 31.640625 -28.96875 31.328125 -29.425781 31.234375 -29.96875 C 31.148438 -30.507812 31.289062 -31.039062 31.65625 -31.5625 L 33.578125 -34.21875 C 33.953125 -34.75 34.40625 -35.054688 34.9375 -35.140625 C 35.476562 -35.222656 36.015625 -35.078125 36.546875 -34.703125 L 46.1875 -27.78125 L 54.40625 -36.265625 C 54.8125 -36.597656 55.265625 -36.835938 55.765625 -36.984375 C 56.265625 -37.140625 56.78125 -37.03125 57.3125 -36.65625 L 60.203125 -34.578125 C 60.671875 -34.242188 60.953125 -33.804688 61.046875 -33.265625 C 61.140625 -32.722656 60.992188 -32.242188 60.609375 -31.828125 L 52.375 -23.34375 L 63.984375 -15.015625 L 72.203125 -23.5 C 72.609375 -23.832031 73.0625 -24.070312 73.5625 -24.21875 C 74.0625 -24.375 74.578125 -24.265625 75.109375 -23.890625 L 78 -21.8125 C 78.46875 -21.46875 78.75 -21.023438 78.84375 -20.484375 C 78.9375 -19.953125 78.789062 -19.476562 78.40625 -19.0625 L 70.171875 -10.5625 L 77.78125 -5.109375 C 78.3125 -4.734375 78.632812 -4.265625 78.75 -3.703125 C 78.863281 -3.148438 78.734375 -2.609375 78.359375 -2.078125 L 76.4375 0.578125 C 76.070312 1.097656 75.609375 1.390625 75.046875 1.453125 C 74.484375 1.523438 73.9375 1.375 73.40625 1 L 64.9375 -5.078125 L 52.984375 7.25 L 61.453125 13.328125 C 61.984375 13.703125 62.300781 14.171875 62.40625 14.734375 C 62.519531 15.296875 62.394531 15.835938 62.03125 16.359375 L 60.109375 19.015625 C 59.734375 19.546875 59.265625 19.84375 58.703125 19.90625 C 58.140625 19.976562 57.59375 19.828125 57.0625 19.453125 L 47.65625 12.703125 L 39.4375 21.171875 C 38.5 22.148438 37.507812 22.269531 36.46875 21.53125 L 33.5625 19.4375 C 33.09375 19.101562 32.8125 18.664062 32.71875 18.125 C 32.632812 17.59375 32.785156 17.109375 33.171875 16.671875 L 41.390625 8.203125 L 29.859375 -0.0625 L 21.640625 8.40625 C 20.703125 9.382812 19.710938 9.5 18.671875 8.75 Z M 35.1875 -5.515625 L 46.71875 2.75 L 58.671875 -9.578125 L 47.140625 -17.84375 Z M 35.1875 -5.515625 "/></g></g></g><g fill="#ffffff" fill-opacity="1"><g transform="translate(612.12909, 165.358512)"><g><path d="M 7.328125 7.671875 C 6.835938 7.160156 6.609375 6.617188 6.640625 6.046875 C 6.679688 5.484375 6.9375 4.976562 7.40625 4.53125 L 52.984375 -38.96875 C 53.503906 -39.457031 54.046875 -39.707031 54.609375 -39.71875 C 55.171875 -39.726562 55.695312 -39.476562 56.1875 -38.96875 L 73.109375 -21.234375 C 76.390625 -17.785156 78.679688 -14.257812 79.984375 -10.65625 C 81.296875 -7.050781 81.515625 -3.5 80.640625 0 C 79.765625 3.507812 77.675781 6.835938 74.375 9.984375 C 71.0625 13.148438 67.644531 15.078125 64.125 15.765625 C 60.601562 16.460938 57.070312 16.070312 53.53125 14.59375 C 50 13.125 46.59375 10.664062 43.3125 7.21875 L 31.515625 -5.125 L 14.0625 11.53125 C 13.59375 11.976562 13.0625 12.191406 12.46875 12.171875 C 11.882812 12.160156 11.347656 11.894531 10.859375 11.375 Z M 37.3125 -10.796875 L 48.84375 1.28125 C 52.125 4.71875 55.351562 6.566406 58.53125 6.828125 C 61.71875 7.085938 64.78125 5.8125 67.71875 3 C 70.59375 0.257812 72.019531 -2.695312 72 -5.875 C 71.988281 -9.0625 70.296875 -12.425781 66.921875 -15.96875 L 55.390625 -28.046875 Z M 37.3125 -10.796875 "/></g></g></g><g fill="#ffffff" fill-opacity="1"><g transform="translate(651.481678, 207.963328)"><g><path d="M 5.578125 7.515625 C 5.191406 6.992188 5.039062 6.441406 5.125 5.859375 C 5.21875 5.273438 5.523438 4.789062 6.046875 4.40625 L 42.75 -22.859375 C 43.269531 -23.242188 43.820312 -23.394531 44.40625 -23.3125 C 44.988281 -23.238281 45.472656 -22.941406 45.859375 -22.421875 L 48.625 -18.703125 C 49.007812 -18.191406 49.15625 -17.640625 49.0625 -17.046875 C 48.976562 -16.453125 48.675781 -15.960938 48.15625 -15.578125 L 11.453125 11.6875 C 10.929688 12.070312 10.378906 12.21875 9.796875 12.125 C 9.210938 12.039062 8.726562 11.742188 8.34375 11.234375 Z M 52.921875 -28.625 C 52.535156 -29.132812 52.382812 -29.679688 52.46875 -30.265625 C 52.550781 -30.859375 52.851562 -31.347656 53.375 -31.734375 L 57.546875 -34.828125 C 58.066406 -35.210938 58.628906 -35.367188 59.234375 -35.296875 C 59.847656 -35.222656 60.347656 -34.929688 60.734375 -34.421875 L 64.359375 -29.53125 C 64.742188 -29.019531 64.890625 -28.445312 64.796875 -27.8125 C 64.703125 -27.1875 64.394531 -26.679688 63.875 -26.296875 L 59.703125 -23.203125 C 59.179688 -22.816406 58.617188 -22.679688 58.015625 -22.796875 C 57.421875 -22.910156 56.929688 -23.222656 56.546875 -23.734375 Z M 52.921875 -28.625 "/></g></g></g><g fill="#ffffff" fill-opacity="1"><g transform="translate(664.182482, 224.932321)"><g><path d="M 5.109375 7.953125 C 4.765625 7.410156 4.648438 6.847656 4.765625 6.265625 C 4.890625 5.691406 5.222656 5.226562 5.765625 4.875 L 59.671875 -29.78125 C 60.210938 -30.132812 60.769531 -30.242188 61.34375 -30.109375 C 61.925781 -29.984375 62.390625 -29.648438 62.734375 -29.109375 L 65.203125 -25.28125 C 65.578125 -24.695312 65.691406 -24.128906 65.546875 -23.578125 C 65.410156 -23.023438 65.070312 -22.570312 64.53125 -22.21875 L 10.625 12.4375 C 10.082031 12.789062 9.53125 12.914062 8.96875 12.8125 C 8.414062 12.707031 7.953125 12.363281 7.578125 11.78125 Z M 5.109375 7.953125 "/></g></g></g><g fill="#ffffff" fill-opacity="1"><g transform="translate(675.851295, 241.193468)"><g><path d="M 8.53125 19.375 C 7.09375 16.488281 6.363281 13.578125 6.34375 10.640625 C 6.332031 7.703125 6.945312 5.023438 8.1875 2.609375 C 9.4375 0.203125 11.300781 -1.613281 13.78125 -2.84375 C 17.757812 -4.820312 21.726562 -4.785156 25.6875 -2.734375 C 29.644531 -0.679688 33.285156 2.75 36.609375 7.5625 L 44.828125 19.546875 L 47.328125 18.296875 C 50.097656 16.921875 51.867188 15.054688 52.640625 12.703125 C 53.410156 10.347656 52.910156 7.382812 51.140625 3.8125 C 49.878906 1.28125 48.328125 -0.53125 46.484375 -1.625 C 44.648438 -2.726562 42.765625 -3.195312 40.828125 -3.03125 C 39.796875 -2.957031 39.066406 -3.359375 38.640625 -4.234375 L 36.703125 -8.109375 C 36.390625 -8.742188 36.34375 -9.304688 36.5625 -9.796875 C 36.78125 -10.296875 37.144531 -10.675781 37.65625 -10.9375 C 38.53125 -11.363281 39.765625 -11.5625 41.359375 -11.53125 C 42.953125 -11.5 44.695312 -11.09375 46.59375 -10.3125 C 48.488281 -9.53125 50.390625 -8.265625 52.296875 -6.515625 C 54.203125 -4.773438 55.925781 -2.347656 57.46875 0.765625 C 59.1875 4.210938 60.1875 7.335938 60.46875 10.140625 C 60.75 12.953125 60.476562 15.40625 59.65625 17.5 C 58.832031 19.601562 57.617188 21.425781 56.015625 22.96875 C 54.410156 24.519531 52.628906 25.785156 50.671875 26.765625 L 22.671875 40.671875 C 22.097656 40.953125 21.53125 41 20.96875 40.8125 C 20.40625 40.632812 19.984375 40.253906 19.703125 39.671875 L 17.734375 35.703125 C 17.410156 35.066406 17.347656 34.484375 17.546875 33.953125 C 17.753906 33.421875 18.144531 33.015625 18.71875 32.734375 L 22.4375 30.890625 C 21.019531 30.640625 19.492188 30.128906 17.859375 29.359375 C 16.234375 28.597656 14.613281 27.429688 13 25.859375 C 11.382812 24.296875 9.894531 22.132812 8.53125 19.375 Z M 15.90625 17.953125 C 17.082031 20.316406 18.660156 22.222656 20.640625 23.671875 C 22.628906 25.128906 24.96875 25.890625 27.65625 25.953125 C 30.351562 26.023438 33.3125 25.257812 36.53125 23.65625 L 38.953125 22.453125 L 32.5 13.171875 C 29.894531 9.347656 27.394531 6.738281 25 5.34375 C 22.613281 3.957031 20.390625 3.773438 18.328125 4.796875 C 16.710938 5.597656 15.609375 6.738281 15.015625 8.21875 C 14.421875 9.707031 14.226562 11.3125 14.4375 13.03125 C 14.644531 14.757812 15.132812 16.398438 15.90625 17.953125 Z M 15.90625 17.953125 "/></g></g></g><g fill="#ffffff" fill-opacity="1"><g transform="translate(697.8704, 284.119897)"><g><path d="M 2.78125 9.03125 C 2.59375 8.414062 2.632812 7.84375 2.90625 7.3125 C 3.1875 6.789062 3.640625 6.4375 4.265625 6.25 L 65.484375 -12.640625 C 66.109375 -12.835938 66.675781 -12.796875 67.1875 -12.515625 C 67.707031 -12.234375 68.0625 -11.785156 68.25 -11.171875 L 69.6875 -6.5625 C 69.894531 -5.882812 69.851562 -5.300781 69.5625 -4.8125 C 69.28125 -4.320312 68.828125 -3.976562 68.203125 -3.78125 L 46.71875 2.84375 C 49.332031 3.863281 51.648438 5.375 53.671875 7.375 C 55.703125 9.375 57.285156 12.21875 58.421875 15.90625 C 59.648438 19.90625 59.820312 23.570312 58.9375 26.90625 C 58.050781 30.25 56.28125 33.117188 53.625 35.515625 C 50.96875 37.921875 47.582031 39.753906 43.46875 41.015625 L 17.46875 49.046875 C 16.84375 49.234375 16.273438 49.203125 15.765625 48.953125 C 15.253906 48.710938 14.894531 48.253906 14.6875 47.578125 L 13.265625 42.96875 C 13.066406 42.351562 13.101562 41.78125 13.375 41.25 C 13.65625 40.726562 14.109375 40.375 14.734375 40.1875 L 40.28125 32.3125 C 44.570312 30.976562 47.609375 28.890625 49.390625 26.046875 C 51.179688 23.210938 51.453125 19.765625 50.203125 15.703125 C 49.023438 11.890625 46.859375 9.191406 43.703125 7.609375 C 40.546875 6.023438 36.820312 5.898438 32.53125 7.234375 L 6.984375 15.109375 C 6.359375 15.296875 5.789062 15.265625 5.28125 15.015625 C 4.78125 14.773438 4.425781 14.316406 4.21875 13.640625 Z M 2.78125 9.03125 "/></g></g></g><g fill="#ffffff" fill-opacity="1"><g transform="translate(714.119644, 335.034113)"><g><path d="M 2.890625 29.984375 C 2.179688 24.441406 2.441406 19.675781 3.671875 15.6875 C 4.910156 11.695312 6.753906 8.519531 9.203125 6.15625 C 11.660156 3.800781 14.378906 2.363281 17.359375 1.84375 C 17.867188 1.78125 18.359375 1.929688 18.828125 2.296875 C 19.296875 2.660156 19.566406 3.128906 19.640625 3.703125 L 20.28125 8.578125 C 20.375 9.347656 20.253906 9.945312 19.921875 10.375 C 19.597656 10.800781 19.179688 11.113281 18.671875 11.3125 C 17.191406 11.894531 15.78125 12.890625 14.4375 14.296875 C 13.101562 15.703125 12.082031 17.597656 11.375 19.984375 C 10.675781 22.378906 10.554688 25.363281 11.015625 28.9375 C 11.722656 34.425781 13.21875 38.335938 15.5 40.671875 C 17.78125 43.003906 20.550781 43.957031 23.8125 43.53125 C 26.039062 43.25 27.753906 42.332031 28.953125 40.78125 C 30.148438 39.238281 31.109375 36.988281 31.828125 34.03125 C 32.546875 31.082031 33.253906 27.296875 33.953125 22.671875 C 34.703125 17.847656 35.675781 13.796875 36.875 10.515625 C 38.070312 7.242188 39.753906 4.707031 41.921875 2.90625 C 44.097656 1.113281 47.003906 -0.015625 50.640625 -0.484375 C 54.078125 -0.929688 57.269531 -0.40625 60.21875 1.09375 C 63.175781 2.59375 65.675781 4.992188 67.71875 8.296875 C 69.757812 11.597656 71.097656 15.707031 71.734375 20.625 C 72.242188 24.582031 72.160156 28.113281 71.484375 31.21875 C 70.816406 34.320312 69.734375 36.972656 68.234375 39.171875 C 66.734375 41.367188 65.046875 43.109375 63.171875 44.390625 C 61.296875 45.679688 59.398438 46.484375 57.484375 46.796875 C 57.046875 46.847656 56.597656 46.738281 56.140625 46.46875 C 55.679688 46.195312 55.410156 45.710938 55.328125 45.015625 L 54.671875 39.953125 C 54.609375 39.503906 54.675781 39.023438 54.875 38.515625 C 55.070312 38.003906 55.5 37.578125 56.15625 37.234375 C 58.726562 36.503906 60.742188 34.75 62.203125 31.96875 C 63.660156 29.1875 64.125 25.753906 63.59375 21.671875 C 63.0625 17.535156 61.832031 14.273438 59.90625 11.890625 C 57.976562 9.503906 55.328125 8.53125 51.953125 8.96875 C 49.773438 9.25 48.046875 10.085938 46.765625 11.484375 C 45.492188 12.890625 44.484375 14.96875 43.734375 17.71875 C 42.984375 20.46875 42.273438 24.023438 41.609375 28.390625 C 40.859375 33.679688 39.910156 38.050781 38.765625 41.5 C 37.617188 44.957031 35.984375 47.617188 33.859375 49.484375 C 31.734375 51.359375 28.847656 52.53125 25.203125 53 C 21.191406 53.519531 17.628906 52.90625 14.515625 51.15625 C 11.410156 49.414062 8.863281 46.742188 6.875 43.140625 C 4.882812 39.535156 3.554688 35.148438 2.890625 29.984375 Z M 2.890625 29.984375 "/></g></g></g><g fill="#ffffff" fill-opacity="1"><g transform="translate(721.275517, 389.466582)"><g><path d="M -1.71875 21.09375 C -1.601562 17.875 -0.859375 14.96875 0.515625 12.375 C 1.898438 9.789062 3.710938 7.734375 5.953125 6.203125 C 8.203125 4.671875 10.707031 3.957031 13.46875 4.0625 C 17.90625 4.21875 21.378906 6.140625 23.890625 9.828125 C 26.398438 13.515625 27.972656 18.265625 28.609375 24.078125 L 30.125 38.53125 L 32.921875 38.625 C 36.003906 38.738281 38.441406 37.941406 40.234375 36.234375 C 42.023438 34.535156 42.992188 31.691406 43.140625 27.703125 C 43.242188 24.867188 42.75 22.53125 41.65625 20.6875 C 40.5625 18.84375 39.125 17.535156 37.34375 16.765625 C 36.40625 16.335938 35.957031 15.640625 36 14.671875 L 36.15625 10.359375 C 36.175781 9.648438 36.394531 9.125 36.8125 8.78125 C 37.238281 8.445312 37.738281 8.289062 38.3125 8.3125 C 39.28125 8.34375 40.457031 8.753906 41.84375 9.546875 C 43.238281 10.335938 44.582031 11.523438 45.875 13.109375 C 47.175781 14.691406 48.25 16.703125 49.09375 19.140625 C 49.945312 21.585938 50.3125 24.550781 50.1875 28.03125 C 50.050781 31.882812 49.4375 35.113281 48.34375 37.71875 C 47.257812 40.320312 45.851562 42.347656 44.125 43.796875 C 42.40625 45.242188 40.472656 46.269531 38.328125 46.875 C 36.179688 47.476562 34.015625 47.742188 31.828125 47.671875 L 0.578125 46.5625 C -0.0664062 46.539062 -0.585938 46.3125 -0.984375 45.875 C -1.390625 45.445312 -1.582031 44.910156 -1.5625 44.265625 L -1.40625 39.828125 C -1.382812 39.117188 -1.15625 38.578125 -0.71875 38.203125 C -0.289062 37.835938 0.242188 37.664062 0.890625 37.6875 L 5.046875 37.828125 C 3.910156 36.953125 2.800781 35.789062 1.71875 34.34375 C 0.644531 32.894531 -0.21875 31.09375 -0.875 28.9375 C -1.539062 26.789062 -1.820312 24.175781 -1.71875 21.09375 Z M 5.453125 23.359375 C 5.359375 25.992188 5.835938 28.425781 6.890625 30.65625 C 7.941406 32.882812 9.632812 34.664062 11.96875 36 C 14.300781 37.34375 17.265625 38.078125 20.859375 38.203125 L 23.5625 38.296875 L 22.3125 27.046875 C 21.832031 22.453125 20.875 18.972656 19.4375 16.609375 C 18.007812 14.253906 16.140625 13.035156 13.828125 12.953125 C 12.035156 12.890625 10.523438 13.363281 9.296875 14.375 C 8.078125 15.394531 7.144531 16.710938 6.5 18.328125 C 5.863281 19.941406 5.515625 21.617188 5.453125 23.359375 Z M 5.453125 23.359375 "/></g></g></g><g fill="#ffffff" fill-opacity="1"><g transform="translate(721.847841, 436.781294)"><g><path d="M -2.1875 9.09375 C -2.03125 8.46875 -1.703125 8 -1.203125 7.6875 C -0.703125 7.382812 -0.140625 7.304688 0.484375 7.453125 L 44.953125 18.140625 C 45.578125 18.285156 46.046875 18.609375 46.359375 19.109375 C 46.679688 19.617188 46.765625 20.1875 46.609375 20.8125 L 45.59375 25.046875 C 45.445312 25.671875 45.117188 26.132812 44.609375 26.4375 C 44.097656 26.75 43.53125 26.832031 42.90625 26.6875 L 39.625 25.890625 C 41.226562 27.796875 42.34375 29.984375 42.96875 32.453125 C 43.59375 34.921875 43.535156 37.691406 42.796875 40.765625 C 41.160156 47.835938 37.082031 52.144531 30.5625 53.6875 C 32.84375 55.75 34.429688 58.347656 35.328125 61.484375 C 36.234375 64.617188 36.265625 67.941406 35.421875 71.453125 C 34.640625 74.703125 33.179688 77.472656 31.046875 79.765625 C 28.921875 82.054688 26.15625 83.601562 22.75 84.40625 C 19.34375 85.207031 15.359375 85.0625 10.796875 83.96875 L -16.328125 77.453125 C -16.953125 77.304688 -17.414062 76.976562 -17.71875 76.46875 C -18.03125 75.96875 -18.113281 75.40625 -17.96875 74.78125 L -16.90625 70.375 C -16.757812 69.75 -16.429688 69.28125 -15.921875 68.96875 C -15.421875 68.664062 -14.859375 68.585938 -14.234375 68.734375 L 12.03125 75.046875 C 15.539062 75.890625 18.414062 76.046875 20.65625 75.515625 C 22.894531 74.992188 24.625 73.988281 25.84375 72.5 C 27.0625 71.007812 27.910156 69.265625 28.390625 67.265625 C 28.785156 65.640625 28.78125 63.882812 28.375 62 C 27.96875 60.113281 26.894531 58.382812 25.15625 56.8125 C 23.414062 55.238281 20.789062 54.03125 17.28125 53.1875 L -8.984375 46.875 C -9.609375 46.726562 -10.070312 46.398438 -10.375 45.890625 C -10.6875 45.390625 -10.769531 44.820312 -10.625 44.1875 L -9.5625 39.796875 C -9.40625 39.160156 -9.078125 38.6875 -8.578125 38.375 C -8.078125 38.070312 -7.515625 37.992188 -6.890625 38.140625 L 19.375 44.453125 C 22.882812 45.296875 25.765625 45.425781 28.015625 44.84375 C 30.273438 44.257812 32.015625 43.21875 33.234375 41.71875 C 34.453125 40.226562 35.289062 38.550781 35.75 36.6875 C 36.132812 35.050781 36.125 33.289062 35.71875 31.40625 C 35.3125 29.519531 34.238281 27.789062 32.5 26.21875 C 30.769531 24.644531 28.1875 23.445312 24.75 22.625 L -1.625 16.28125 C -2.25 16.132812 -2.71875 15.804688 -3.03125 15.296875 C -3.34375 14.796875 -3.421875 14.234375 -3.265625 13.609375 Z M -2.1875 9.09375 "/></g></g></g><g fill="#ffffff" fill-opacity="1"><g transform="translate(702.549855, 513.701973)"><g><path d="M -20.609375 0.703125 C -20.328125 0.117188 -19.910156 -0.269531 -19.359375 -0.46875 C -18.804688 -0.675781 -18.238281 -0.640625 -17.65625 -0.359375 L 40.25 27.0625 C 40.832031 27.332031 41.222656 27.75 41.421875 28.3125 C 41.628906 28.875 41.59375 29.445312 41.3125 30.03125 L 39.40625 34.03125 C 39.132812 34.613281 38.71875 35.003906 38.15625 35.203125 C 37.601562 35.398438 37.035156 35.363281 36.453125 35.09375 L 32.625 33.28125 C 33.875 35.582031 34.582031 38.195312 34.75 41.125 C 34.925781 44.0625 34.191406 47.269531 32.546875 50.75 C 31.003906 54.007812 29.132812 56.523438 26.9375 58.296875 C 24.75 60.078125 22.34375 61.253906 19.71875 61.828125 C 17.101562 62.398438 14.394531 62.484375 11.59375 62.078125 C 8.789062 61.679688 5.96875 60.878906 3.125 59.671875 C 2.164062 59.285156 1.160156 58.84375 0.109375 58.34375 C -0.929688 57.851562 -1.898438 57.363281 -2.796875 56.875 C -5.472656 55.457031 -7.867188 53.785156 -9.984375 51.859375 C -12.097656 49.941406 -13.75 47.789062 -14.9375 45.40625 C -16.125 43.03125 -16.738281 40.421875 -16.78125 37.578125 C -16.832031 34.742188 -16.085938 31.695312 -14.546875 28.4375 C -12.953125 25.070312 -10.984375 22.535156 -8.640625 20.828125 C -6.304688 19.128906 -3.867188 17.992188 -1.328125 17.421875 L -21.546875 7.84375 C -22.128906 7.5625 -22.523438 7.160156 -22.734375 6.640625 C -22.941406 6.117188 -22.910156 5.566406 -22.640625 4.984375 Z M -6.625 29.984375 C -8.050781 33.003906 -8.515625 35.679688 -8.015625 38.015625 C -7.523438 40.347656 -6.394531 42.394531 -4.625 44.15625 C -2.863281 45.914062 -0.785156 47.429688 1.609375 48.703125 C 3.253906 49.554688 4.9375 50.351562 6.65625 51.09375 C 9.144531 52.132812 11.628906 52.78125 14.109375 53.03125 C 16.597656 53.28125 18.898438 52.859375 21.015625 51.765625 C 23.140625 50.671875 24.914062 48.613281 26.34375 45.59375 C 27.695312 42.738281 28.125 40.109375 27.625 37.703125 C 27.125 35.296875 26.039062 33.179688 24.375 31.359375 C 22.71875 29.535156 20.84375 28.054688 18.75 26.921875 C 17.84375 26.429688 16.75 25.878906 15.46875 25.265625 C 14.1875 24.660156 13.035156 24.148438 12.015625 23.734375 C 9.953125 22.835938 7.722656 22.367188 5.328125 22.328125 C 2.929688 22.296875 0.664062 22.878906 -1.46875 24.078125 C -3.601562 25.273438 -5.320312 27.242188 -6.625 29.984375 Z M -6.625 29.984375 "/></g></g></g><g fill="#ffffff" fill-opacity="1"><g transform="translate(680.281192, 561.25303)"><g><path d="M -12.765625 16.875 C -10.941406 14.21875 -8.753906 12.164062 -6.203125 10.71875 C -3.648438 9.28125 -1.019531 8.519531 1.6875 8.4375 C 4.40625 8.351562 6.90625 9.09375 9.1875 10.65625 C 12.84375 13.175781 14.738281 16.660156 14.875 21.109375 C 15.007812 25.566406 13.785156 30.421875 11.203125 35.671875 L 4.71875 48.671875 L 7.015625 50.265625 C 9.566406 52.015625 12.054688 52.648438 14.484375 52.171875 C 16.921875 51.691406 19.269531 49.8125 21.53125 46.53125 C 23.132812 44.1875 23.96875 41.945312 24.03125 39.8125 C 24.101562 37.675781 23.59375 35.804688 22.5 34.203125 C 21.925781 33.347656 21.914062 32.519531 22.46875 31.71875 L 24.921875 28.15625 C 25.316406 27.570312 25.785156 27.25 26.328125 27.1875 C 26.878906 27.132812 27.394531 27.269531 27.875 27.59375 C 28.664062 28.144531 29.4375 29.125 30.1875 30.53125 C 30.9375 31.945312 31.429688 33.671875 31.671875 35.703125 C 31.910156 37.734375 31.726562 40.003906 31.125 42.515625 C 30.53125 45.035156 29.242188 47.734375 27.265625 50.609375 C 25.085938 53.773438 22.84375 56.164062 20.53125 57.78125 C 18.21875 59.394531 15.941406 60.347656 13.703125 60.640625 C 11.460938 60.941406 9.273438 60.769531 7.140625 60.125 C 5.015625 59.476562 3.050781 58.535156 1.25 57.296875 L -24.515625 39.578125 C -25.046875 39.210938 -25.363281 38.738281 -25.46875 38.15625 C -25.582031 37.582031 -25.457031 37.03125 -25.09375 36.5 L -22.578125 32.84375 C -22.171875 32.257812 -21.6875 31.925781 -21.125 31.84375 C -20.5625 31.757812 -20.015625 31.898438 -19.484375 32.265625 L -16.0625 34.625 C -16.550781 33.28125 -16.859375 31.703125 -16.984375 29.890625 C -17.109375 28.085938 -16.875 26.101562 -16.28125 23.9375 C -15.6875 21.769531 -14.515625 19.414062 -12.765625 16.875 Z M -7.953125 22.625 C -9.453125 24.800781 -10.351562 27.109375 -10.65625 29.546875 C -10.96875 31.992188 -10.492188 34.410156 -9.234375 36.796875 C -7.984375 39.179688 -5.878906 41.390625 -2.921875 43.421875 L -0.6875 44.953125 L 4.28125 34.8125 C 6.351562 30.675781 7.421875 27.222656 7.484375 24.453125 C 7.546875 21.691406 6.625 19.660156 4.71875 18.359375 C 3.238281 17.335938 1.707031 16.925781 0.125 17.125 C -1.457031 17.332031 -2.953125 17.941406 -4.359375 18.953125 C -5.773438 19.972656 -6.972656 21.195312 -7.953125 22.625 Z M -7.953125 22.625 "/></g></g></g><g fill="#ffffff" fill-opacity="1"><g transform="translate(653.473704, 601.365712)"><g><path d="M -6.53125 6.828125 C -6.09375 6.359375 -5.578125 6.113281 -4.984375 6.09375 C -4.390625 6.082031 -3.859375 6.300781 -3.390625 6.75 L 42.890625 51.0625 C 43.347656 51.507812 43.582031 52.03125 43.59375 52.625 C 43.601562 53.21875 43.390625 53.75 42.953125 54.21875 L 39.609375 57.703125 C 39.117188 58.210938 38.585938 58.460938 38.015625 58.453125 C 37.453125 58.441406 36.941406 58.210938 36.484375 57.765625 L 20.234375 42.21875 C 20.609375 44.976562 20.414062 47.734375 19.65625 50.484375 C 18.894531 53.234375 17.179688 56.003906 14.515625 58.796875 C 11.617188 61.816406 8.492188 63.75 5.140625 64.59375 C 1.796875 65.4375 -1.566406 65.28125 -4.953125 64.125 C -8.347656 62.96875 -11.597656 60.898438 -14.703125 57.921875 L -34.359375 39.09375 C -34.828125 38.644531 -35.078125 38.140625 -35.109375 37.578125 C -35.148438 37.015625 -34.925781 36.476562 -34.4375 35.96875 L -31.09375 32.484375 C -30.65625 32.015625 -30.140625 31.769531 -29.546875 31.75 C -28.953125 31.738281 -28.421875 31.957031 -27.953125 32.40625 L -8.65625 50.90625 C -5.40625 54.007812 -2.109375 55.648438 1.234375 55.828125 C 4.585938 56.015625 7.734375 54.570312 10.671875 51.5 C 13.429688 48.613281 14.738281 45.410156 14.59375 41.890625 C 14.445312 38.367188 12.75 35.054688 9.5 31.953125 L -9.796875 13.453125 C -10.265625 13.003906 -10.515625 12.492188 -10.546875 11.921875 C -10.585938 11.359375 -10.363281 10.820312 -9.875 10.3125 Z M -6.53125 6.828125 "/></g></g></g><g fill="#ffffff" fill-opacity="1"><g transform="translate(615.008142, 640.444812)"><g><path d="M -8.21875 6.703125 C -7.664062 6.253906 -7.109375 6.066406 -6.546875 6.140625 C -5.984375 6.222656 -5.5 6.515625 -5.09375 7.015625 L 34.796875 55.90625 C 35.203125 56.414062 35.390625 56.953125 35.359375 57.515625 C 35.328125 58.085938 35.035156 58.597656 34.484375 59.046875 L 30.515625 62.296875 C 29.960938 62.742188 29.40625 62.925781 28.84375 62.84375 C 28.28125 62.757812 27.796875 62.460938 27.390625 61.953125 L -12.5 13.0625 C -12.90625 12.5625 -13.09375 12.03125 -13.0625 11.46875 C -13.03125 10.90625 -12.738281 10.398438 -12.1875 9.953125 Z M -8.21875 6.703125 "/></g></g></g><g fill="#ffffff" fill-opacity="1"><g transform="translate(597.120597, 655.557199)"><g><path d="M -22.1875 14.921875 C -19.195312 12.910156 -16.378906 11.851562 -13.734375 11.75 C -11.097656 11.644531 -8.644531 12.351562 -6.375 13.875 C -4.101562 15.40625 -1.992188 17.613281 -0.046875 20.5 L 14.15625 41.640625 L 20.40625 37.4375 C 20.945312 37.082031 21.503906 36.960938 22.078125 37.078125 C 22.660156 37.191406 23.128906 37.507812 23.484375 38.03125 L 25.3125 40.765625 C 25.675781 41.296875 25.800781 41.851562 25.6875 42.4375 C 25.582031 43.019531 25.257812 43.488281 24.71875 43.84375 L 18.46875 48.046875 L 27.46875 61.421875 C 27.820312 61.953125 27.941406 62.507812 27.828125 63.09375 C 27.722656 63.675781 27.398438 64.144531 26.859375 64.5 L 23.109375 67.03125 C 22.566406 67.394531 22.003906 67.515625 21.421875 67.390625 C 20.847656 67.273438 20.382812 66.953125 20.03125 66.421875 L 11.03125 53.046875 L 1.09375 59.734375 C 0.507812 60.128906 -0.0546875 60.257812 -0.609375 60.125 C -1.171875 59.988281 -1.632812 59.65625 -2 59.125 L -3.828125 56.390625 C -4.179688 55.867188 -4.3125 55.328125 -4.21875 54.765625 C -4.132812 54.203125 -3.800781 53.722656 -3.21875 53.328125 L 6.71875 46.640625 L -7.109375 26.0625 C -8.796875 23.550781 -10.554688 21.863281 -12.390625 21 C -14.222656 20.132812 -16.234375 20.4375 -18.421875 21.90625 L -23.296875 25.1875 C -23.835938 25.550781 -24.394531 25.675781 -24.96875 25.5625 C -25.539062 25.457031 -26.007812 25.132812 -26.375 24.59375 L -28.3125 21.71875 C -28.664062 21.175781 -28.785156 20.613281 -28.671875 20.03125 C -28.566406 19.457031 -28.242188 18.988281 -27.703125 18.625 Z M -22.1875 14.921875 "/></g></g></g><g fill="#ffffff" fill-opacity="1"><g transform="translate(569.933211, 675.043627)"><g><path d="M -23.65625 10.46875 C -19.957031 8.65625 -16.421875 7.945312 -13.046875 8.34375 C -9.671875 8.738281 -6.597656 10.085938 -3.828125 12.390625 C -1.066406 14.691406 1.242188 17.753906 3.109375 21.578125 L 15.03125 46.015625 C 15.320312 46.597656 15.367188 47.171875 15.171875 47.734375 C 14.984375 48.296875 14.597656 48.71875 14.015625 49 L 9.6875 51.109375 C 9.101562 51.398438 8.53125 51.445312 7.96875 51.25 C 7.414062 51.050781 6.992188 50.660156 6.703125 50.078125 L -5 26.0625 C -9.207031 17.445312 -15.070312 14.972656 -22.59375 18.640625 C -26.175781 20.390625 -28.492188 22.929688 -29.546875 26.265625 C -30.597656 29.609375 -30.132812 33.304688 -28.15625 37.359375 L -16.453125 61.375 C -16.160156 61.957031 -16.109375 62.53125 -16.296875 63.09375 C -16.492188 63.65625 -16.882812 64.078125 -17.46875 64.359375 L -21.796875 66.46875 C -22.378906 66.757812 -22.9375 66.796875 -23.46875 66.578125 C -24 66.367188 -24.410156 65.972656 -24.703125 65.390625 L -44.75 24.296875 C -45.03125 23.710938 -45.085938 23.148438 -44.921875 22.609375 C -44.753906 22.066406 -44.378906 21.648438 -43.796875 21.359375 L -39.734375 19.375 C -39.148438 19.09375 -38.578125 19.046875 -38.015625 19.234375 C -37.460938 19.429688 -37.046875 19.820312 -36.765625 20.40625 L -34.90625 24.21875 C -34.320312 21.4375 -33.210938 18.890625 -31.578125 16.578125 C -29.941406 14.273438 -27.300781 12.238281 -23.65625 10.46875 Z M -23.65625 10.46875 "/></g></g></g><g fill="#ffffff" fill-opacity="1"><g transform="translate(523.673908, 699.25158)"><g><path d="M -10.25 2.71875 C -9.632812 2.5625 -9.066406 2.628906 -8.546875 2.921875 C -8.035156 3.210938 -7.703125 3.671875 -7.546875 4.296875 L 8.640625 65.203125 C 8.816406 65.890625 8.753906 66.488281 8.453125 67 C 8.160156 67.507812 7.707031 67.84375 7.09375 68 L 2.421875 69.25 C 1.679688 69.445312 1.070312 69.410156 0.59375 69.140625 C 0.125 68.867188 -0.207031 68.617188 -0.40625 68.390625 L -30.09375 35.9375 L -39.953125 78.890625 C -40.003906 79.179688 -40.148438 79.554688 -40.390625 80.015625 C -40.640625 80.484375 -41.140625 80.816406 -41.890625 81.015625 L -46.4375 82.21875 C -47.125 82.40625 -47.722656 82.347656 -48.234375 82.046875 C -48.753906 81.753906 -49.101562 81.265625 -49.28125 80.578125 L -65.46875 19.671875 C -65.625 19.046875 -65.550781 18.476562 -65.25 17.96875 C -64.957031 17.46875 -64.46875 17.125 -63.78125 16.9375 L -59.234375 15.734375 C -58.609375 15.566406 -58.035156 15.628906 -57.515625 15.921875 C -57.003906 16.210938 -56.671875 16.671875 -56.515625 17.296875 L -44.328125 63.1875 L -36.8125 28.640625 C -36.738281 27.960938 -36.5 27.382812 -36.09375 26.90625 C -35.6875 26.4375 -35.113281 26.101562 -34.375 25.90625 L -31.46875 25.125 C -30.664062 24.914062 -30 24.925781 -29.46875 25.15625 C -28.9375 25.382812 -28.4375 25.765625 -27.96875 26.296875 L -4.21875 52.53125 L -16.40625 6.640625 C -16.5625 6.015625 -16.492188 5.445312 -16.203125 4.9375 C -15.910156 4.4375 -15.453125 4.101562 -14.828125 3.9375 Z M -10.25 2.71875 "/></g></g></g><g fill="#ffffff" fill-opacity="1"><g transform="translate(455.413968, 717.056816)"><g><path d="M -25.859375 0.71875 C -21.753906 0.445312 -18.210938 1.128906 -15.234375 2.765625 C -12.253906 4.410156 -9.921875 6.820312 -8.234375 10 C -6.546875 13.1875 -5.5625 16.898438 -5.28125 21.140625 L -3.515625 48.28125 C -3.472656 48.925781 -3.644531 49.472656 -4.03125 49.921875 C -4.414062 50.367188 -4.929688 50.613281 -5.578125 50.65625 L -10.390625 50.96875 C -11.035156 51.007812 -11.582031 50.832031 -12.03125 50.4375 C -12.476562 50.050781 -12.722656 49.535156 -12.765625 48.890625 L -14.5 22.234375 C -15.125 12.660156 -19.609375 8.144531 -27.953125 8.6875 C -31.929688 8.945312 -35.039062 10.421875 -37.28125 13.109375 C -39.53125 15.804688 -40.503906 19.40625 -40.203125 23.90625 L -38.46875 50.5625 C -38.425781 51.207031 -38.597656 51.753906 -38.984375 52.203125 C -39.367188 52.648438 -39.882812 52.894531 -40.53125 52.9375 L -45.34375 53.265625 C -45.988281 53.304688 -46.519531 53.125 -46.9375 52.71875 C -47.351562 52.320312 -47.582031 51.800781 -47.625 51.15625 L -50.609375 5.53125 C -50.648438 4.882812 -50.488281 4.34375 -50.125 3.90625 C -49.769531 3.46875 -49.269531 3.226562 -48.625 3.1875 L -44.109375 2.890625 C -43.460938 2.847656 -42.914062 3.019531 -42.46875 3.40625 C -42.03125 3.789062 -41.789062 4.304688 -41.75 4.953125 L -41.46875 9.1875 C -39.882812 6.832031 -37.898438 4.894531 -35.515625 3.375 C -33.128906 1.863281 -29.910156 0.976562 -25.859375 0.71875 Z M -25.859375 0.71875 "/></g></g></g><g fill="#ffffff" fill-opacity="1"><g transform="translate(402.662094, 720.917133)"><g><path d="M -25.25 -3.546875 C -21.726562 -3.179688 -18.75 -2.242188 -16.3125 -0.734375 C -13.882812 0.765625 -11.960938 2.671875 -10.546875 4.984375 C -9.140625 7.296875 -8.171875 9.867188 -7.640625 12.703125 C -7.117188 15.535156 -6.953125 18.492188 -7.140625 21.578125 C -7.179688 22.609375 -7.242188 23.570312 -7.328125 24.46875 C -7.421875 25.363281 -7.550781 26.320312 -7.71875 27.34375 C -8.144531 30.332031 -8.898438 33.160156 -9.984375 35.828125 C -11.078125 38.503906 -12.546875 40.84375 -14.390625 42.84375 C -16.242188 44.851562 -18.515625 46.351562 -21.203125 47.34375 C -23.890625 48.34375 -26.992188 48.660156 -30.515625 48.296875 C -34.296875 47.910156 -37.363281 46.921875 -39.71875 45.328125 C -42.082031 43.742188 -43.960938 41.875 -45.359375 39.71875 L -47.609375 61.796875 C -47.671875 62.441406 -47.925781 62.953125 -48.375 63.328125 C -48.832031 63.703125 -49.382812 63.859375 -50.03125 63.796875 L -54.625 63.328125 C -55.269531 63.265625 -55.78125 63 -56.15625 62.53125 C -56.539062 62.070312 -56.703125 61.519531 -56.640625 60.875 L -50.15625 -2.875 C -50.09375 -3.507812 -49.828125 -4.007812 -49.359375 -4.375 C -48.898438 -4.75 -48.347656 -4.90625 -47.703125 -4.84375 L -43.40625 -4.40625 C -42.695312 -4.332031 -42.171875 -4.066406 -41.828125 -3.609375 C -41.484375 -3.160156 -41.34375 -2.617188 -41.40625 -1.984375 L -41.828125 2.046875 C -40.015625 0.171875 -37.757812 -1.320312 -35.0625 -2.4375 C -32.363281 -3.5625 -29.09375 -3.929688 -25.25 -3.546875 Z M -28.046875 4.03125 C -31.242188 3.707031 -33.878906 4.179688 -35.953125 5.453125 C -38.023438 6.734375 -39.65625 8.460938 -40.84375 10.640625 C -42.039062 12.816406 -42.789062 15.085938 -43.09375 17.453125 C -43.25 18.460938 -43.398438 19.6875 -43.546875 21.125 C -43.691406 22.570312 -43.789062 23.804688 -43.84375 24.828125 C -44.007812 27.078125 -43.707031 29.335938 -42.9375 31.609375 C -42.164062 33.890625 -40.875 35.832031 -39.0625 37.4375 C -37.25 39.050781 -34.804688 40.015625 -31.734375 40.328125 C -28.472656 40.660156 -25.804688 40.203125 -23.734375 38.953125 C -21.671875 37.703125 -20.101562 35.953125 -19.03125 33.703125 C -17.96875 31.460938 -17.234375 29.003906 -16.828125 26.328125 C -16.578125 24.472656 -16.390625 22.617188 -16.265625 20.765625 C -16.117188 18.054688 -16.34375 15.488281 -16.9375 13.0625 C -17.53125 10.632812 -18.710938 8.601562 -20.484375 6.96875 C -22.265625 5.34375 -24.785156 4.363281 -28.046875 4.03125 Z M -28.046875 4.03125 "/></g></g></g><g fill="#ffffff" fill-opacity="1"><g transform="translate(350.491711, 715.853576)"><g><path d="M -20.171875 -6.390625 C -17.066406 -5.554688 -14.40625 -4.175781 -12.1875 -2.25 C -9.96875 -0.320312 -8.363281 1.898438 -7.375 4.421875 C -6.382812 6.953125 -6.25 9.554688 -6.96875 12.234375 C -8.101562 16.515625 -10.75 19.460938 -14.90625 21.078125 C -19.070312 22.703125 -24.0625 23.171875 -29.875 22.484375 L -44.28125 20.734375 L -45 23.4375 C -45.800781 26.425781 -45.570312 28.988281 -44.3125 31.125 C -43.050781 33.257812 -40.492188 34.835938 -36.640625 35.859375 C -33.910156 36.585938 -31.519531 36.625 -29.46875 35.96875 C -27.425781 35.320312 -25.835938 34.21875 -24.703125 32.65625 C -24.078125 31.832031 -23.296875 31.546875 -22.359375 31.796875 L -18.171875 32.90625 C -17.492188 33.09375 -17.035156 33.429688 -16.796875 33.921875 C -16.566406 34.410156 -16.523438 34.929688 -16.671875 35.484375 C -16.921875 36.421875 -17.582031 37.476562 -18.65625 38.65625 C -19.738281 39.84375 -21.195312 40.882812 -23.03125 41.78125 C -24.875 42.6875 -27.078125 43.28125 -29.640625 43.5625 C -32.210938 43.84375 -35.179688 43.535156 -38.546875 42.640625 C -42.273438 41.640625 -45.285156 40.320312 -47.578125 38.6875 C -49.867188 37.050781 -51.53125 35.226562 -52.5625 33.21875 C -53.59375 31.21875 -54.160156 29.097656 -54.265625 26.859375 C -54.367188 24.628906 -54.140625 22.460938 -53.578125 20.359375 L -45.515625 -9.859375 C -45.347656 -10.484375 -45.007812 -10.941406 -44.5 -11.234375 C -43.988281 -11.523438 -43.421875 -11.585938 -42.796875 -11.421875 L -38.515625 -10.28125 C -37.828125 -10.09375 -37.351562 -9.75 -37.09375 -9.25 C -36.832031 -8.75 -36.785156 -8.1875 -36.953125 -7.5625 L -38.015625 -3.546875 C -36.890625 -4.453125 -35.5 -5.265625 -33.84375 -5.984375 C -32.195312 -6.710938 -30.25 -7.160156 -28 -7.328125 C -25.757812 -7.492188 -23.148438 -7.179688 -20.171875 -6.390625 Z M -23.984375 0.078125 C -26.523438 -0.597656 -29 -0.671875 -31.40625 -0.140625 C -33.8125 0.378906 -35.925781 1.628906 -37.75 3.609375 C -39.582031 5.585938 -40.960938 8.3125 -41.890625 11.78125 L -42.59375 14.390625 L -31.359375 15.703125 C -26.773438 16.265625 -23.171875 16.109375 -20.546875 15.234375 C -17.921875 14.367188 -16.3125 12.816406 -15.71875 10.578125 C -15.25 8.835938 -15.375 7.257812 -16.09375 5.84375 C -16.8125 4.425781 -17.882812 3.222656 -19.3125 2.234375 C -20.75 1.242188 -22.304688 0.523438 -23.984375 0.078125 Z M -23.984375 0.078125 "/></g></g></g><g fill="#ffffff" fill-opacity="1"><g transform="translate(303.717472, 704.019789)"><g><path d="M -8.625 -3.875 C -8.03125 -3.613281 -7.628906 -3.207031 -7.421875 -2.65625 C -7.210938 -2.101562 -7.238281 -1.53125 -7.5 -0.9375 L -33.765625 57.5 C -34.035156 58.09375 -34.445312 58.492188 -35 58.703125 C -35.550781 58.910156 -36.125 58.882812 -36.71875 58.625 L -41.125 56.640625 C -41.769531 56.347656 -42.179688 55.929688 -42.359375 55.390625 C -42.535156 54.859375 -42.488281 54.296875 -42.21875 53.703125 L -33 33.203125 C -35.5 34.484375 -38.164062 35.222656 -41 35.421875 C -43.84375 35.617188 -47.023438 34.925781 -50.546875 33.34375 C -54.359375 31.632812 -57.222656 29.34375 -59.140625 26.46875 C -61.054688 23.59375 -62.035156 20.363281 -62.078125 16.78125 C -62.128906 13.195312 -61.269531 9.441406 -59.5 5.515625 L -48.34375 -19.296875 C -48.082031 -19.890625 -47.691406 -20.296875 -47.171875 -20.515625 C -46.648438 -20.734375 -46.066406 -20.695312 -45.421875 -20.40625 L -41.015625 -18.4375 C -40.429688 -18.164062 -40.035156 -17.753906 -39.828125 -17.203125 C -39.617188 -16.660156 -39.644531 -16.09375 -39.90625 -15.5 L -50.875 8.875 C -52.71875 12.976562 -53.160156 16.640625 -52.203125 19.859375 C -51.242188 23.078125 -48.828125 25.554688 -44.953125 27.296875 C -41.316406 28.929688 -37.863281 29.085938 -34.59375 27.765625 C -31.320312 26.453125 -28.765625 23.742188 -26.921875 19.640625 L -15.953125 -4.734375 C -15.691406 -5.328125 -15.300781 -5.734375 -14.78125 -5.953125 C -14.257812 -6.179688 -13.675781 -6.148438 -13.03125 -5.859375 Z M -8.625 -3.875 "/></g></g></g><g fill="#ffffff" fill-opacity="1"><g transform="translate(253.937797, 680.752092)"><g/></g></g><g fill="#ffffff" fill-opacity="1"><g transform="translate(236.025762, 670.858256)"><g><path d="M -22.03125 14.609375 C -21.507812 14.992188 -21.207031 15.476562 -21.125 16.0625 C -21.039062 16.65625 -21.191406 17.207031 -21.578125 17.71875 L -23.78125 20.65625 C -24.164062 21.175781 -24.648438 21.476562 -25.234375 21.5625 C -25.816406 21.644531 -26.367188 21.492188 -26.890625 21.109375 L -50.0625 3.75 C -50.625 3.320312 -50.9375 2.828125 -51 2.265625 C -51.0625 1.703125 -50.898438 1.160156 -50.515625 0.640625 L -48.3125 -2.296875 C -47.925781 -2.804688 -47.453125 -3.113281 -46.890625 -3.21875 C -46.328125 -3.332031 -45.765625 -3.175781 -45.203125 -2.75 Z M -22.03125 14.609375 "/></g></g></g><g fill="#ffffff" fill-opacity="1"><g transform="translate(201.49252, 644.479926)"><g/></g></g></svg>